<?xml version="1.0" standalone="no"?>
<!DOCTYPE svg PUBLIC "-//W3C//DTD SVG 20010904//EN"
 "http://www.w3.org/TR/2001/REC-SVG-20010904/DTD/svg10.dtd">
<svg version="1.0" xmlns="http://www.w3.org/2000/svg"
 width="109.000000pt" height="109.000000pt" viewBox="0 0 109.000000 109.000000"
 preserveAspectRatio="xMidYMid meet">
<metadata>
Created by potrace 1.14, written by Peter Selinger 2001-2017
</metadata>
<g transform="translate(0.000000,109.000000) scale(0.100000,-0.100000)"
fill="#000000" stroke="none">
<path d="M51 1054 c-17 -14 -35 -42 -41 -62 -8 -25 -10 -181 -8 -472 3 -395 5
-437 21 -461 37 -54 33 -54 523 -54 444 0 453 0 481 21 53 40 53 35 53 517 0
381 -2 452 -15 477 -31 60 -30 60 -529 60 l-454 0 -31 -26z m374 -387 c62
-181 115 -331 118 -333 3 -3 55 146 117 330 l112 336 94 0 c69 0 94 -3 94 -12
0 -7 -72 -213 -159 -458 l-159 -445 -102 0 -103 0 -163 455 c-90 250 -164 456
-164 458 0 1 46 1 101 0 l102 -3 112 -328z"/>
</g>
</svg>
