<svg width="50" height="50" viewBox="0 0 50 50" fill="none" xmlns="http://www.w3.org/2000/svg">
<path d="M49.1667 0H0.833333C0.3725 0 0 0.373333 0 0.833333V30.8333C0 31.2933 0.3725 31.6667 0.833333 31.6667H9.16667V33.1767C7.675 34.0425 6.66667 35.6542 6.66667 37.5C6.66667 39.1208 7.44583 40.56 8.645 41.4742C6.01083 42.6392 4.16667 45.2733 4.16667 48.3333V49.1667C4.16667 49.6267 4.53917 50 5 50H18.3333H31.6667H45C45.4608 50 45.8333 49.6267 45.8333 49.1667V48.3333C45.8333 45.2733 43.9892 42.6392 41.355 41.4742C42.5542 40.56 43.3333 39.1208 43.3333 37.5C43.3333 35.6542 42.325 34.0425 40.8333 33.1767V31.6667H49.1667C49.6275 31.6667 50 31.2933 50 30.8333V0.833333C50 0.373333 49.6275 0 49.1667 0ZM8.33333 37.5C8.33333 35.6617 9.82833 34.1667 11.6667 34.1667C13.505 34.1667 15 35.6617 15 37.5C15 39.3383 13.505 40.8333 11.6667 40.8333C9.82833 40.8333 8.33333 39.3383 8.33333 37.5ZM5.83333 48.3333C5.83333 45.1167 8.45083 42.5 11.6667 42.5C14.8825 42.5 17.5 45.1167 17.5 48.3333H5.83333ZM14.6883 41.4742C15.8875 40.56 16.6667 39.1208 16.6667 37.5C16.6667 36.2183 16.1783 35.0525 15.3833 34.1667H21.2842C20.4883 35.0525 20 36.2183 20 37.5C20 39.1208 20.7792 40.56 21.9783 41.4742C20.405 42.17 19.1175 43.39 18.3333 44.9125C17.5492 43.39 16.2617 42.17 14.6883 41.4742ZM21.6667 37.5C21.6667 35.6617 23.1617 34.1667 25 34.1667C26.8383 34.1667 28.3333 35.6617 28.3333 37.5C28.3333 39.3383 26.8383 40.8333 25 40.8333C23.1617 40.8333 21.6667 39.3383 21.6667 37.5ZM19.1667 48.3333C19.1667 45.1167 21.7842 42.5 25 42.5C28.2158 42.5 30.8333 45.1167 30.8333 48.3333H19.1667ZM28.0217 41.4742C29.2208 40.56 30 39.1208 30 37.5C30 36.2183 29.5117 35.0525 28.7167 34.1667H34.6175C33.8217 35.0525 33.3333 36.2183 33.3333 37.5C33.3333 39.1208 34.1125 40.56 35.3117 41.4742C33.7383 42.17 32.4508 43.39 31.6667 44.9125C30.8825 43.39 29.595 42.17 28.0217 41.4742ZM44.1667 48.3333H32.5C32.5 45.1167 35.1175 42.5 38.3333 42.5C41.5492 42.5 44.1667 45.1167 44.1667 48.3333ZM41.6667 37.5C41.6667 39.3383 40.1717 40.8333 38.3333 40.8333C36.495 40.8333 35 39.3383 35 37.5C35 35.6617 36.495 34.1667 38.3333 34.1667C40.1717 34.1667 41.6667 35.6617 41.6667 37.5ZM40 25.8333H37.5V27.5H39.1667V32.5H10.8333V26.6667C10.8333 26.2067 10.4608 25.8333 10 25.8333H7.5V24.1667H18.3333H31.6667H42.5V25.8333H40ZM29.9125 13.3333C30.855 13.3333 31.7792 13.6575 32.515 14.2467L35.3117 16.4842C35.4908 16.6275 35.7217 16.6917 35.9475 16.6592C36.1733 16.6275 36.3783 16.5042 36.5108 16.3175L40.1817 11.1783L42.1758 12.6733L38.0867 18.2967C37.6758 18.8625 37.0667 19.2208 36.3733 19.3075C35.6775 19.3933 35.0017 19.195 34.465 18.7475L32.2 16.86C31.9517 16.6533 31.605 16.6092 31.3133 16.745C31.0208 16.8825 30.8333 17.1767 30.8333 17.5V22.5H25.8333V15H24.1667V22.5H19.1667V17.5C19.1667 17.1767 18.9792 16.8825 18.6867 16.745C18.3967 16.6092 18.0492 16.6525 17.8 16.86L15.535 18.7475C14.9975 19.1958 14.3233 19.3933 13.6267 19.3075C12.9333 19.2208 12.325 18.8625 11.9133 18.2967L7.82417 12.6733L9.81833 11.1783L13.4892 16.3175C13.6217 16.5042 13.8258 16.6275 14.0525 16.6592C14.2792 16.6925 14.5092 16.6275 14.6883 16.4842L17.485 14.2467C18.22 13.6575 19.145 13.3333 20.0867 13.3333H29.9125ZM21.6667 8.33333C21.6667 6.495 23.1617 5 25 5C26.8383 5 28.3333 6.495 28.3333 8.33333C28.3333 10.1717 26.8383 11.6667 25 11.6667C23.1617 11.6667 21.6667 10.1717 21.6667 8.33333ZM48.3333 30H40.8333V27.5H43.3333C43.7942 27.5 44.1667 27.1267 44.1667 26.6667V23.3333C44.1667 22.8733 43.7942 22.5 43.3333 22.5H32.5V19.2792L33.3975 20.0275C34.2808 20.7633 35.4442 21.1033 36.5783 20.9617C37.7175 20.8208 38.7583 20.2067 39.4342 19.2775L44.0067 12.9908C44.2742 12.6225 44.1975 12.1067 43.8325 11.8342L40.4992 9.33417C40.32 9.19917 40.0975 9.14333 39.8717 9.1775C39.65 9.21167 39.4517 9.33417 39.3217 9.51667L35.6667 14.6333L33.5575 12.9458C32.5267 12.1208 31.2325 11.6667 29.9133 11.6667H28.7167C29.5117 10.7808 30 9.615 30 8.33333C30 5.57583 27.7575 3.33333 25 3.33333C22.2425 3.33333 20 5.57583 20 8.33333C20 9.615 20.4883 10.7808 21.2833 11.6667H20.0867C18.7667 11.6667 17.4725 12.1208 16.4425 12.945L14.3333 14.6333L10.6775 9.51583C10.5475 9.33333 10.3483 9.21083 10.1275 9.17667C9.90167 9.14333 9.67917 9.19917 9.5 9.33333L6.16667 11.8333C5.80167 12.1067 5.725 12.6217 5.9925 12.99L10.565 19.2767C11.2408 20.205 12.2817 20.8192 13.4208 20.9608C14.5533 21.1017 15.7192 20.7625 16.6017 20.0267L17.5 19.2792V22.5H6.66667C6.20583 22.5 5.83333 22.8733 5.83333 23.3333V26.6667C5.83333 27.1267 6.20583 27.5 6.66667 27.5H9.16667V30H1.66667V1.66667H48.3333V30Z" fill="white"/>
<path d="M46.6667 3.33325H45V4.99992H46.6667V3.33325Z" fill="white"/>
<path d="M43.3334 3.33325H41.6667V4.99992H43.3334V3.33325Z" fill="white"/>
<path d="M39.9999 3.33325H38.3333V4.99992H39.9999V3.33325Z" fill="white"/>
<path d="M35.8334 25.8333H34.1667V27.4999H35.8334V25.8333Z" fill="white"/>
</svg>
