<svg width="56" height="61" viewBox="0 0 56 61" fill="none" xmlns="http://www.w3.org/2000/svg">
<g clip-path="url(#clip0)">
<path d="M10.9994 18.2053C11.368 18.4513 11.9012 18.3165 12.1296 17.9222C13.9652 14.7518 16.5455 12.1283 19.5914 10.3354C19.9888 10.1015 20.1344 9.56596 19.9165 9.13928C19.6987 8.71272 19.2001 8.55636 18.8024 8.79026C15.5094 10.7285 12.72 13.5646 10.7356 16.9919C10.4964 17.4051 10.6144 17.9485 10.9994 18.2053Z" fill="white"/>
<path d="M16.0734 46.8843C16.3719 46.5181 16.3374 45.9615 15.9963 45.641C14.3553 44.0993 12.965 42.2961 11.8641 40.2818C11.6347 39.8621 11.132 39.7214 10.7409 39.9678C10.35 40.2141 10.2191 40.754 10.4484 41.1737C11.6386 43.3514 13.1415 45.3006 14.9153 46.9671C15.3121 47.2833 15.698 47.2557 16.0734 46.8843Z" fill="white"/>
<path d="M47.6797 40.2184C47.2917 39.9667 46.7873 40.1005 46.553 40.517C45.4864 42.4128 44.1595 44.1184 42.6091 45.5862C41.8065 46.346 42.9091 47.6513 43.6947 46.9079C45.3706 45.3212 46.805 43.4775 47.958 41.428C48.1922 41.0116 48.0676 40.47 47.6797 40.2184Z" fill="white"/>
<path d="M38.9559 10.3354C42.0019 12.1282 44.5822 14.7518 46.4179 17.9223C46.9578 18.8546 48.3711 17.9577 47.8118 16.992C45.8274 13.5645 43.0379 10.7284 39.7448 8.79023C39.3475 8.55645 38.8486 8.71258 38.6307 9.13926C38.4129 9.56594 38.5584 10.1015 38.9559 10.3354Z" fill="white"/>
<path d="M35.6715 41.1823C36.9751 39.5791 37.7673 37.4849 37.7673 35.1947V25.2028C37.7307 24.0384 36.1638 24.035 36.126 25.2028V26.0585C36.3169 29.4475 31.5356 30.5065 29.274 30.5065C25.5599 30.5065 22.4221 28.5737 22.4221 26.286C22.4221 24.813 22.8934 23.6785 23.8227 22.9141C25.1589 21.8151 27.3812 21.5353 29.6223 22.184C32.2905 22.9564 34.0197 22.2737 35.795 21.011C35.9762 20.9294 36.0865 20.9901 36.126 21.1928C36.1635 22.359 37.7299 22.3589 37.7673 21.1928C37.7673 19.651 36.0916 18.686 34.8884 19.5419C33.4066 20.5959 32.1399 21.0877 30.0495 20.4826C25.6504 19.1541 20.8633 21.0538 20.7808 26.0585C20.7808 26.0584 20.7808 35.1946 20.7808 35.1946C20.7808 37.4849 21.5731 39.5791 22.8767 41.1823C18.6796 43.6113 15.9301 48.5683 15.9729 53.7029V59.2676C15.9729 60.4067 17.6143 60.4067 17.6143 59.2676V54.7763H20.7808V59.2677C20.7808 60.4069 22.4221 60.4069 22.4221 59.2677V53.8953C22.4221 53.4087 22.0547 53.0142 21.6014 53.0142H17.6335C17.8219 48.5617 20.4106 44.3863 24.1465 42.4578C27.0214 44.9108 31.527 44.9105 34.4015 42.4579C38.1935 44.4529 40.683 48.4967 40.9142 53.0142H36.9467C36.4934 53.0142 36.126 53.4087 36.126 53.8953V59.2677C36.126 60.4069 37.7673 60.4069 37.7673 59.2677V54.7764H40.9338V59.2677C40.9338 60.4069 42.5752 60.4069 42.5752 59.2677V53.703C42.5752 48.4597 39.9001 43.6741 35.6715 41.1823ZM22.4222 35.1946V29.8624C25.5761 33.0457 32.9738 33.0442 36.1261 29.8624V35.1946C35.7486 44.9562 22.7962 44.9486 22.4222 35.1946Z" fill="white"/>
<path d="M30.7009 38.409C29.914 39.2538 28.6335 39.2538 27.8467 38.409C27.0964 37.6035 25.9357 38.8496 26.6861 39.655C28.113 41.1869 30.4346 41.1869 31.8615 39.655C32.6118 38.8496 31.4511 37.6035 30.7009 38.409Z" fill="white"/>
<path d="M52.7839 19.8555H46.8713C45.8159 19.8555 44.9573 20.7773 44.9573 21.9104V36.3587C44.9573 37.4917 45.8159 38.4136 46.8713 38.4136H52.7839C53.8393 38.4136 54.6979 37.4917 54.6979 36.3587V21.9104C54.6979 20.7773 53.8393 19.8555 52.7839 19.8555ZM46.8713 21.6176H52.7839C52.9343 21.6176 53.0566 21.749 53.0566 21.9104V33.2229H46.5986V21.9104C46.5986 21.749 46.721 21.6176 46.8713 21.6176ZM52.7839 36.6515H46.8713C46.721 36.6515 46.5986 36.5202 46.5986 36.3588V34.9852H53.0566V36.3588C53.0566 36.5202 52.9343 36.6515 52.7839 36.6515Z" fill="white"/>
<path d="M49.3505 24.0781H50.3053C51.392 24.0377 51.3911 22.356 50.3053 22.3159H49.3505C48.264 22.3563 48.2647 24.038 49.3505 24.0781Z" fill="white"/>
<path d="M28.9768 13.2596C29.1749 13.3395 29.3732 13.3395 29.5714 13.2596C32.8392 11.8954 36.6188 8.7769 36.6188 4.6425C36.6189 2.08265 34.7032 0 32.3486 0C31.1651 0 30.0656 0.522542 29.2741 1.41831C27.9792 -0.0468737 25.8608 -0.41458 24.2056 0.537344C23.2702 1.07528 24.0452 2.62845 24.9806 2.09076C26.257 1.35664 27.8937 1.94849 28.5406 3.33273C28.8379 3.96888 29.7103 3.96888 30.0076 3.33273C30.4604 2.36401 31.3574 1.76217 32.3486 1.76217C33.7982 1.76217 34.9774 3.05431 34.9774 4.6425C34.9774 8.47357 30.4835 10.8975 29.2733 11.4805C28.1266 10.9306 24.0471 8.74142 23.6092 5.25315C23.4674 4.12395 21.8409 4.35949 21.9826 5.48846C22.618 10.5507 28.7174 13.1514 28.9768 13.2596Z" fill="white"/>
<path d="M11.0284 37.0109C11.0315 36.9974 11.0337 36.9836 11.0362 36.97H12.067C13.1534 36.9297 13.153 35.248 12.067 35.2078H11.306L11.89 31.3712H15.5809C17.4946 31.3712 18.1538 28.885 16.619 27.7211L12.8354 24.8517C12.8449 23.6012 12.4706 22.3761 11.7439 21.3552C11.3278 20.7705 10.6313 19.792 9.34719 19.7891C8.06737 19.7848 7.36356 20.7684 6.94698 21.3551C6.20837 22.3927 5.8325 23.6414 5.85504 24.9131L2.15259 27.7211C0.617706 28.885 1.27698 31.3712 3.19058 31.3712H6.8009L7.38489 35.2078H6.59387C5.50751 35.2481 5.50784 36.9298 6.59387 36.97H7.65484C8.01233 38.846 10.5984 38.8227 11.0284 37.0109ZM15.581 29.6092H12.1583L12.5832 26.8179L15.6721 29.1605C15.9728 29.3696 15.9728 29.6092 15.581 29.6092ZM3.1908 29.6092C2.83539 29.5765 2.80508 29.427 3.09976 29.1605L6.11635 26.8728L6.53292 29.6092H3.1908ZM9.26041 36.6017L7.62585 25.8639C7.43731 24.6213 7.50975 23.4668 8.2512 22.4252C8.69043 21.8083 8.9386 21.5507 9.34379 21.5514C9.7526 21.5523 10.0018 21.8097 10.4399 22.4252C11.1598 23.4967 11.257 24.6004 11.0652 25.8639L9.43068 36.6017C9.42794 36.6777 9.27748 36.6973 9.26041 36.6017Z" fill="white"/>
</g>
<defs>
<clipPath id="clip0">
<rect width="56" height="60.1221" fill="white"/>
</clipPath>
</defs>
</svg>
