<svg width="50" height="50" viewBox="0 0 50 50" fill="none" xmlns="http://www.w3.org/2000/svg">
<g clip-path="url(#clip0)">
<path d="M45.9881 3.63788H39.5974C39.1929 3.63788 38.865 3.96581 38.865 4.3703C38.865 4.77479 39.1929 5.10272 39.5974 5.10272H45.9881C46.3926 5.10272 46.7206 4.77479 46.7206 4.3703C46.7206 3.96581 46.3927 3.63788 45.9881 3.63788Z" fill="white"/>
<path d="M35.9685 5.10272H36.7475C37.152 5.10272 37.4799 4.77479 37.4799 4.3703C37.4799 3.96581 37.152 3.63788 36.7475 3.63788H35.9685C35.564 3.63788 35.2361 3.96581 35.2361 4.3703C35.2361 4.77479 35.564 5.10272 35.9685 5.10272Z" fill="white"/>
<path d="M35.9685 8.5434H45.9884C46.3929 8.5434 46.7209 8.21547 46.7209 7.81097C46.7209 7.40648 46.3929 7.07855 45.9884 7.07855H35.9685C35.564 7.07855 35.2361 7.40648 35.2361 7.81097C35.2361 8.21547 35.564 8.5434 35.9685 8.5434Z" fill="white"/>
<path d="M38.6175 43.3692C38.6175 40.4435 37.6407 37.5733 35.8616 35.2542L35.9974 32.7537C36.0897 31.0516 34.739 29.6115 33.021 29.6115H25.0036C24.6348 29.3509 24.411 28.9276 24.411 28.4703V26.4253C25.6541 25.6214 26.5269 24.7046 27.168 23.6136H28.5853C30.2251 23.6136 31.5591 22.2796 31.5591 20.6399V15.1699C31.5591 14.2474 31.0254 13.4319 30.2272 13.046V9.20715C30.2272 7.4595 28.8055 6.03762 27.0578 6.03762H26.9757C26.9257 6.03762 26.8851 5.9969 26.8851 5.947C26.8851 4.19934 25.4632 2.77747 23.7155 2.77747H15.9588C12.1085 2.77747 8.97598 5.90999 8.97598 9.76028V13.0459C8.17793 13.4318 7.64414 14.2473 7.64414 15.1698V17.9517C7.64414 19.2532 8.70303 20.3121 10.0046 20.3121H10.9501C11.1948 22.3821 12.1658 24.2725 13.6867 25.5867C14.0436 25.8951 14.4126 26.1706 14.7922 26.4167V28.4702C14.7922 28.9261 14.5676 29.3495 14.1971 29.6115H6.18252C4.47783 29.6115 3.11309 31.0382 3.20625 32.7536L3.34199 35.2541C1.56279 37.5733 0.586035 40.4435 0.586035 43.3692V46.1279C0.221875 46.536 0 47.0736 0 47.6622C0 48.9345 1.03506 49.9695 2.30732 49.9695H36.8962C38.1685 49.9695 39.2035 48.9344 39.2035 47.6622C39.2035 47.0736 38.9816 46.536 38.6175 46.128V43.3692ZM37.1526 43.3692V45.3695C37.0684 45.3601 36.9829 45.3549 36.8962 45.3549H35.3134L35.7268 37.7387C36.6538 39.4605 37.1526 41.4002 37.1526 43.3692ZM30.0191 14.8123C30.0673 14.9225 30.0944 15.0434 30.0944 15.17V17.9519C30.0944 18.4457 29.6927 18.8475 29.1988 18.8475H28.3278V16.0865L28.7792 15.9292C29.3376 15.7347 29.7768 15.3245 30.0191 14.8123ZM25.1292 23.2985H23.2911C22.9948 23.2985 22.7537 23.0574 22.7537 22.7612C22.7537 22.4649 22.9948 22.2239 23.2911 22.2239H25.1292C25.4255 22.2239 25.6665 22.4649 25.6665 22.7612C25.6665 23.0574 25.4255 23.2985 25.1292 23.2985ZM28.5855 22.1489H27.8452C28.0515 21.5608 28.1938 20.9448 28.2689 20.3123H29.1988C29.5157 20.3123 29.8181 20.2491 30.0944 20.1354V20.6401C30.0944 21.472 29.4175 22.1489 28.5855 22.1489ZM10.441 9.76047C10.441 6.7179 12.9164 4.2425 15.959 4.2425H23.7157C24.6557 4.2425 25.4204 5.00725 25.4204 5.94719C25.4204 6.80491 26.1183 7.50266 26.9759 7.50266H27.058C27.9979 7.50266 28.7626 8.26741 28.7626 9.20735V13.8912C28.7626 14.186 28.5756 14.449 28.2973 14.546L26.7581 15.0821C26.6961 15.1035 26.6321 15.0588 26.6321 14.9921L26.635 12.0816C26.6438 9.95745 24.6549 8.10491 21.8682 9.00002C20.4666 9.45042 18.7321 9.44885 17.3353 9.00002C14.5774 8.1137 12.5596 9.93333 12.5685 12.0793L12.5719 14.9923C12.5719 15.0595 12.5064 15.1037 12.4459 15.0821L10.9062 14.5459C10.6279 14.449 10.4409 14.1859 10.4409 13.8911V9.76047H10.441ZM9.10918 17.9519V15.1699C9.10918 15.0434 9.13633 14.9224 9.18447 14.8122C9.42695 15.3245 9.86611 15.7347 10.4247 15.9292L10.876 16.0864V18.8474H10.0049C9.51094 18.8475 9.10918 18.4456 9.10918 17.9519ZM12.3542 19.4663C12.3299 18.5034 12.3448 17.4814 12.3407 16.5456C12.3858 16.5495 12.4311 16.5518 12.4763 16.5518C13.3471 16.5518 14.0382 15.844 14.0367 14.9902L14.0333 12.0753C14.0283 10.8861 15.0951 9.81858 16.8871 10.3946C18.5855 10.9403 20.6234 10.9386 22.3163 10.3946C24.0236 9.84602 25.1754 10.8117 25.1701 12.0778L25.1673 14.9904C25.1661 15.8982 25.9421 16.6255 26.8628 16.5456V19.5256C26.8415 20.1586 26.7373 20.7764 26.5605 21.3639C26.1968 20.9912 25.6898 20.7589 25.1292 20.7589H23.2911C22.1871 20.7589 21.2889 21.6571 21.2889 22.7611C21.2889 23.8651 22.1871 24.7632 23.2911 24.7632H24.2217C22.8688 25.8192 21.3305 26.3698 19.6401 26.3978C15.9425 26.3682 12.46 23.6365 12.3542 19.4663ZM16.2573 28.4704V27.1889C17.316 27.6273 18.4454 27.8544 19.6382 27.8628H19.6434C19.6472 27.8628 19.651 27.8628 19.6548 27.8627C20.816 27.8447 21.9154 27.6197 22.9465 27.1948V28.4703C22.9465 28.8702 23.0302 29.2573 23.1843 29.6115H16.0187C16.1732 29.2572 16.2573 28.87 16.2573 28.4704ZM3.47676 37.7387L3.59238 39.8697C3.61436 40.2737 3.96035 40.5843 4.36338 40.5614C4.76728 40.5395 5.07695 40.1943 5.05508 39.7904L4.66885 32.6744C4.62187 31.8088 5.30879 31.0765 6.18252 31.0765H33.0211C33.8884 31.0765 34.582 31.8023 34.5348 32.6744L33.8465 45.355H22.3613C22.5013 44.5184 22.878 43.7315 23.4584 43.0867L23.4794 43.0633C25.6964 40.583 25.0328 36.7045 22.1672 35.0762C21.4318 34.6584 20.4979 35.1794 20.4979 36.0455V39.3688C20.4979 39.5211 20.374 39.6449 20.2217 39.6449H18.9818C18.8295 39.6449 18.7056 39.521 18.7056 39.3688V36.0455C18.7056 35.1811 17.7731 34.6575 17.0363 35.0762C14.1625 36.709 13.5124 40.589 15.7264 43.0657L15.7451 43.0867C16.3255 43.7314 16.7022 44.5183 16.8422 45.3549H5.35713L5.23965 43.1896C5.21777 42.7857 4.87256 42.4756 4.46865 42.4979C4.06475 42.5198 3.75508 42.865 3.77695 43.2689L3.89014 45.3549H2.30732C2.22061 45.3549 2.13516 45.3602 2.05088 45.3695V43.3692C2.05088 41.4003 2.5498 39.4605 3.47676 37.7387ZM18.3222 45.3549C18.1723 44.1548 17.6578 43.0219 16.834 42.1068L16.8163 42.0869C15.4012 40.5039 15.5907 38.056 17.2408 36.7059V39.3687C17.2408 40.3287 18.0219 41.1097 18.9819 41.1097H20.2218C21.1818 41.1097 21.9629 40.3286 21.9629 39.3687V36.7059C23.602 38.047 23.812 40.4932 22.3855 42.089L22.3697 42.1067C21.5458 43.0219 21.0313 44.1548 20.8814 45.3549H18.3222ZM36.8962 48.5047H2.30732C1.84277 48.5047 1.46484 48.1268 1.46484 47.6623C1.46484 47.1979 1.84277 46.8198 2.30732 46.8198H36.8962C37.3607 46.8198 37.7387 47.1978 37.7387 47.6623C37.7387 48.1269 37.3607 48.5047 36.8962 48.5047Z" fill="white"/>
<path d="M49.2676 5.04298C49.6721 5.04298 50 4.71505 50 4.31056V2.89298C50 1.31466 48.7159 0.0305786 47.1375 0.0305786H34.819C33.2406 0.0305786 31.9565 1.31466 31.9565 2.89298V9.05392C31.9565 10.6323 33.2406 11.9164 34.819 11.9164C35.1011 11.9164 35.3306 12.1459 35.3306 12.4279V16.238C35.3306 16.7883 35.6868 17.2567 36.2172 17.4034C36.7507 17.5511 37.2956 17.329 37.577 16.8599L40.3924 12.1649C40.4843 12.0116 40.6524 11.9164 40.8312 11.9164H47.1376C48.716 11.9164 50.0001 10.6323 50.0001 9.05392V7.73478C50.0001 7.33029 49.6722 7.00236 49.2677 7.00236C48.8632 7.00236 48.5353 7.33029 48.5353 7.73478V9.05392C48.5353 9.82462 47.9083 10.4516 47.1376 10.4516H40.8311C40.1406 10.4516 39.4911 10.8194 39.136 11.4115L36.7953 15.3149V12.4279C36.7953 11.3382 35.9087 10.4516 34.8189 10.4516C34.0482 10.4516 33.4213 9.82462 33.4213 9.05392V2.89298C33.4213 2.12238 34.0482 1.49542 34.8189 1.49542H47.1375C47.9082 1.49542 48.5352 2.12238 48.5352 2.89298V4.31056C48.5352 4.71505 48.8631 5.04298 49.2676 5.04298Z" fill="white"/>
</g>
<defs>
<clipPath id="clip0">
<rect width="50" height="50" fill="white"/>
</clipPath>
</defs>
</svg>
