<svg width="53" height="53" viewBox="0 0 53 53" fill="none" xmlns="http://www.w3.org/2000/svg">
<path d="M49.2734 6.625H47.2031V2.48438C47.2031 2.26474 47.1159 2.05411 46.9606 1.8988C46.8053 1.7435 46.5946 1.65625 46.375 1.65625H28.1562C27.9366 1.65625 27.726 1.7435 27.5707 1.8988C27.4154 2.05411 27.3281 2.26474 27.3281 2.48438V6.625H24.0156V4.96875C24.0156 4.74912 23.9284 4.53848 23.7731 4.38318C23.6178 4.22787 23.4071 4.14062 23.1875 4.14062H5.79688C5.57724 4.14062 5.36661 4.22787 5.2113 4.38318C5.056 4.53848 4.96875 4.74912 4.96875 4.96875V6.625H3.72656C2.95811 6.62585 2.22137 6.93149 1.678 7.47487C1.13462 8.01825 0.828974 8.75498 0.828125 9.52344V41.8203C0.828974 42.5888 1.13462 43.3255 1.678 43.8689C2.22137 44.4123 2.95811 44.7179 3.72656 44.7188H20.3077L19.3139 47.2031H15.7344C15.5147 47.2031 15.3041 47.2904 15.1488 47.4457C14.9935 47.601 14.9062 47.8116 14.9062 48.0312V50.5156C14.9062 50.7353 14.9935 50.9459 15.1488 51.1012C15.3041 51.2565 15.5147 51.3438 15.7344 51.3438H37.2656C37.4853 51.3438 37.6959 51.2565 37.8512 51.1012C38.0065 50.9459 38.0938 50.7353 38.0938 50.5156V48.0312C38.0938 47.8116 38.0065 47.601 37.8512 47.4457C37.6959 47.2904 37.4853 47.2031 37.2656 47.2031H33.6861L32.6923 44.7188H49.2734C50.0419 44.7179 50.7786 44.4123 51.322 43.8689C51.8654 43.3255 52.171 42.5888 52.1719 41.8203V9.52344C52.171 8.75498 51.8654 8.01825 51.322 7.47487C50.7786 6.93149 50.0419 6.62585 49.2734 6.625ZM28.9844 7.56389C28.9954 7.49046 28.9954 7.41579 28.9844 7.34236V3.3125H45.5469V7.34236C45.5358 7.41579 45.5358 7.49046 45.5469 7.56389V14.9062H34.7812C34.5616 14.9062 34.3508 14.9933 34.1954 15.1485L32.2969 17.048V15.7344C32.2969 15.5147 32.2096 15.3041 32.0543 15.1488C31.899 14.9935 31.6884 14.9062 31.4688 14.9062H28.9844V7.56389ZM6.625 5.79688H22.3594V17.3906H19.875C19.6554 17.3906 19.4447 17.4779 19.2894 17.6332C19.1341 17.7885 19.0469 17.9991 19.0469 18.2188V19.5324L17.1484 17.6329C16.9929 17.4777 16.7822 17.3905 16.5625 17.3906H6.625V5.79688ZM36.4375 48.8594V49.6875H16.5625V48.8594H36.4375ZM21.0986 47.2031L22.0923 44.7188H30.9077L31.9014 47.2031H21.0986ZM50.5156 41.8203C50.5154 42.1497 50.3844 42.4655 50.1515 42.6984C49.9186 42.9313 49.6028 43.0622 49.2734 43.0625H3.72656C3.3972 43.0622 3.0814 42.9313 2.84851 42.6984C2.61561 42.4655 2.48465 42.1497 2.48438 41.8203V40.5781H50.5156V41.8203ZM23.8448 25.7009C25.1843 25.7009 27.2546 25.4586 29.8125 24.3769V27.3281C29.8125 28.2067 29.4635 29.0492 28.8423 29.6704C28.2211 30.2916 27.3785 30.6406 26.5 30.6406C25.6215 30.6406 24.7789 30.2916 24.1577 29.6704C23.5365 29.0492 23.1875 28.2067 23.1875 27.3281V25.6802C23.3821 25.6926 23.6005 25.7009 23.8448 25.7009ZM23.1875 24.0198V24.0156C23.1887 23.1374 23.538 22.2956 24.159 21.6746C24.7799 21.0536 25.6218 20.7043 26.5 20.7031C27.8095 20.7031 28.9699 21.5354 29.503 22.7051C27.4492 23.6202 25.764 23.9235 24.6678 24.0115C24.1753 24.0525 23.6804 24.0553 23.1875 24.0198ZM27.3281 32.2265V33.125C27.3281 33.3446 27.2409 33.5553 27.0856 33.7106C26.9303 33.8659 26.7196 33.9531 26.5 33.9531C26.2804 33.9531 26.0697 33.8659 25.9144 33.7106C25.7591 33.5553 25.6719 33.3446 25.6719 33.125V32.2265C26.22 32.3203 26.78 32.3203 27.3281 32.2265ZM26.5 35.6094C27.0135 35.6087 27.5142 35.4492 27.9335 35.1527C28.3527 34.8561 28.6699 34.4371 28.8415 33.9531H29.8125C30.6907 33.9543 31.5326 34.3036 32.1535 34.9246C32.7745 35.5456 33.1238 36.3874 33.125 37.2656V38.9219H31.4688V38.0938C31.4688 37.8741 31.3815 37.6635 31.2262 37.5082C31.0709 37.3529 30.8603 37.2656 30.6406 37.2656C30.421 37.2656 30.2104 37.3529 30.0551 37.5082C29.8997 37.6635 29.8125 37.8741 29.8125 38.0938V38.9219H23.1875V38.0938C23.1875 37.8741 23.1003 37.6635 22.9449 37.5082C22.7896 37.3529 22.579 37.2656 22.3594 37.2656C22.1397 37.2656 21.9291 37.3529 21.7738 37.5082C21.6185 37.6635 21.5312 37.8741 21.5312 38.0938V38.9219H19.875V37.2656C19.8762 36.3874 20.2255 35.5456 20.8465 34.9246C21.4674 34.3036 22.3093 33.9543 23.1875 33.9531H24.1585C24.3301 34.4371 24.6473 34.8561 25.0665 35.1527C25.4858 35.4492 25.9865 35.6087 26.5 35.6094ZM50.5156 38.9219H34.7812V37.2656C34.7799 35.9483 34.2559 34.6852 33.3244 33.7537C32.3929 32.8222 31.1299 32.2983 29.8125 32.2969H28.9844V31.6282C29.7392 31.1922 30.3661 30.5654 30.8021 29.8107C31.2382 29.0559 31.4681 28.1998 31.4688 27.3281V24.0156C31.4688 23.9918 31.4677 23.969 31.4656 23.9452C31.4227 22.6781 30.9085 21.4725 30.0237 20.5644C29.5695 20.0863 29.0231 19.7053 28.4174 19.4444C27.8117 19.1836 27.1594 19.0483 26.5 19.0469C25.1826 19.0483 23.9196 19.5722 22.9881 20.5037C22.0566 21.4353 21.5326 22.6983 21.5312 24.0156V27.3281C21.5319 28.1998 21.7618 29.0559 22.1979 29.8107C22.6339 30.5654 23.2608 31.1922 24.0156 31.6282V32.2969H23.1875C21.8701 32.2983 20.6071 32.8222 19.6756 33.7537C18.7441 34.6852 18.2201 35.9483 18.2188 37.2656V38.9219H2.48438V9.52344C2.48465 9.19407 2.61561 8.87828 2.84851 8.64538C3.0814 8.41249 3.3972 8.28152 3.72656 8.28125H4.96875V18.2188C4.96875 18.4384 5.056 18.649 5.2113 18.8043C5.36661 18.9596 5.57724 19.0469 5.79688 19.0469H16.2199L19.2891 22.1171C19.4049 22.2331 19.5525 22.3121 19.7133 22.3441C19.874 22.3761 20.0406 22.3597 20.192 22.297C20.3434 22.2342 20.4728 22.128 20.5638 21.9917C20.6548 21.8554 20.7033 21.6951 20.7031 21.5312V19.0469H23.1875C23.4071 19.0469 23.6178 18.9596 23.7731 18.8043C23.9284 18.649 24.0156 18.4384 24.0156 18.2188V8.28125H27.3281V15.7344C27.3281 15.954 27.4154 16.1646 27.5707 16.3199C27.726 16.4753 27.9366 16.5625 28.1562 16.5625H30.6406V19.0469C30.6405 19.2108 30.689 19.371 30.78 19.5073C30.871 19.6436 31.0004 19.7498 31.1518 19.8126C31.3032 19.8753 31.4698 19.8917 31.6305 19.8597C31.7912 19.8277 31.9388 19.7487 32.0546 19.6328L35.1239 16.5625H46.375C46.5946 16.5625 46.8053 16.4753 46.9606 16.3199C47.1159 16.1646 47.2031 15.954 47.2031 15.7344V8.28125H49.2734C49.6028 8.28152 49.9186 8.41249 50.1515 8.64538C50.3844 8.87828 50.5154 9.19407 50.5156 9.52344V38.9219Z" fill="white"/>
</svg>
