<svg width="56" height="56" viewBox="0 0 56 56" fill="none" xmlns="http://www.w3.org/2000/svg">
<path d="M39.3732 14.2511H21.899C21.4456 14.2511 21.0781 14.6186 21.0781 15.072C21.0781 15.5254 21.4456 15.8929 21.899 15.8929H39.3731C39.8265 15.8929 40.1941 15.5254 40.1941 15.072C40.1941 14.6185 39.8266 14.2511 39.3732 14.2511Z" fill="white"/>
<path d="M18.0794 14.2511H15.3116C14.8582 14.2511 14.4907 14.6186 14.4907 15.072C14.4907 15.5254 14.8581 15.8929 15.3116 15.8929H18.0794C18.5328 15.8929 18.9003 15.5254 18.9003 15.072C18.9003 14.6186 18.5328 14.2511 18.0794 14.2511Z" fill="white"/>
<path d="M23.8974 39.4124H15.3116C14.8582 39.4124 14.4907 39.7799 14.4907 40.2332C14.4907 40.6867 14.8582 41.0541 15.3116 41.0541H23.8974C24.3508 41.0541 24.7183 40.6866 24.7183 40.2332C24.7183 39.7798 24.3508 39.4124 23.8974 39.4124Z" fill="white"/>
<path d="M27.3424 31.0254H15.3116C14.8582 31.0254 14.4907 31.3929 14.4907 31.8462C14.4907 32.2997 14.8582 32.6671 15.3116 32.6671H27.3424C27.7957 32.6671 28.1633 32.2996 28.1633 31.8462C28.1633 31.3928 27.7958 31.0254 27.3424 31.0254Z" fill="white"/>
<path d="M33.1987 22.6382H15.3116C14.8582 22.6382 14.4907 23.0057 14.4907 23.459C14.4907 23.9124 14.8582 24.2799 15.3116 24.2799H33.1987C33.6521 24.28 34.0196 23.9125 34.0196 23.459C34.0196 23.0056 33.6521 22.6382 33.1987 22.6382Z" fill="white"/>
<path d="M48.7337 5.85266H14.8088C11.8038 5.85266 9.35917 8.29742 9.35917 11.3024V43.6013H0.820797C0.601718 43.6013 0.391608 43.6889 0.237499 43.8446C0.0832796 44.0003 -0.00225179 44.2112 4.50938e-05 44.4303C0.0324202 47.6897 2.37469 50.1474 5.44835 50.1474H39.3733H39.4766C42.4816 50.1474 44.9262 47.7027 44.9262 44.6977V34.7508C44.9262 34.2974 44.5586 33.93 44.1053 33.93C43.6519 33.93 43.2844 34.2975 43.2844 34.7509V44.6978C43.2844 46.7976 41.5762 48.5057 39.4766 48.5057H39.3733C37.2263 48.5057 35.5899 46.7466 35.5667 44.4141C35.5622 43.9639 35.196 43.6013 34.7458 43.6013H11.0013V11.3023C11.0013 9.2025 12.7096 7.49438 14.8091 7.49438H44.839C44.8149 7.51899 44.7922 7.54481 44.7685 7.56996C44.7399 7.60048 44.7109 7.63067 44.6829 7.66173C44.6532 7.69465 44.6247 7.72845 44.5959 7.76213C44.5683 7.7944 44.5404 7.82634 44.5135 7.85926C44.4856 7.89338 44.4589 7.92838 44.4318 7.96317C44.4055 7.99685 44.379 8.03021 44.3536 8.06456C44.3275 8.09978 44.3026 8.13576 44.2773 8.17163C44.2525 8.20685 44.2273 8.24185 44.2033 8.27762C44.1791 8.31382 44.156 8.35079 44.1327 8.38765C44.1094 8.42429 44.0858 8.4606 44.0634 8.49779C44.0409 8.5352 44.0196 8.57337 43.9981 8.61132C43.9765 8.64906 43.9544 8.68657 43.9338 8.72496C43.913 8.76336 43.8937 8.80262 43.8739 8.84167C43.8541 8.8806 43.8338 8.91921 43.815 8.95859C43.7961 8.99818 43.7787 9.03854 43.7606 9.07857C43.7427 9.1185 43.7242 9.15809 43.7073 9.19845C43.6901 9.23925 43.6746 9.28081 43.6584 9.32204C43.6424 9.36273 43.6259 9.40309 43.6109 9.44422C43.5955 9.48643 43.5818 9.52942 43.5675 9.57218C43.5537 9.61331 43.5392 9.654 43.5262 9.69556C43.5127 9.73931 43.501 9.78383 43.4885 9.82812C43.4769 9.86947 43.4644 9.91048 43.4537 9.95226C43.442 9.9982 43.4322 10.0448 43.4216 10.0912C43.4123 10.132 43.402 10.1725 43.3937 10.2137C43.3838 10.2619 43.3761 10.3107 43.3675 10.3594C43.3605 10.3996 43.3524 10.4394 43.3463 10.4799C43.3384 10.5318 43.3328 10.5845 43.3263 10.6368C43.3217 10.6747 43.3159 10.7121 43.3121 10.7502C43.3062 10.8088 43.3026 10.8681 43.2985 10.9272C43.2963 10.9597 43.2928 10.992 43.2912 11.0246C43.2866 11.1166 43.2842 11.2092 43.2842 11.3024V11.5779V18.5881C43.2842 19.0416 43.6517 19.409 44.1051 19.409C44.5584 19.409 44.9259 19.0415 44.9259 18.5881V12.3988H53.37C53.5891 12.3988 53.7992 12.3112 53.9533 12.1555C54.1075 11.9998 54.1931 11.7889 54.1908 11.5698C54.1584 8.31043 51.8161 5.85266 48.7337 5.85266ZM33.9822 45.2432C33.9934 45.3281 34.0066 45.4123 34.0211 45.4958C34.0259 45.5238 34.0318 45.5513 34.0371 45.5792C34.0475 45.6344 34.0578 45.6896 34.0697 45.7441C34.0767 45.7768 34.0846 45.809 34.0921 45.8413C34.1035 45.8904 34.1149 45.9396 34.1275 45.988C34.1363 46.022 34.1458 46.0557 34.1551 46.0894C34.1679 46.1356 34.1808 46.1816 34.1946 46.2272C34.2048 46.2614 34.2157 46.2955 34.2266 46.3294C34.2408 46.3738 34.2556 46.418 34.2708 46.4618C34.2825 46.4956 34.2944 46.5293 34.3068 46.5628C34.3228 46.6063 34.3393 46.6494 34.3562 46.6923C34.3691 46.7249 34.3819 46.7575 34.3953 46.7897C34.4133 46.8331 34.4321 46.876 34.4511 46.9189C34.4646 46.9496 34.4781 46.9805 34.4922 47.0109C34.513 47.0557 34.5348 47.0999 34.5566 47.144C34.5702 47.1713 34.5832 47.1989 34.5972 47.226C34.6239 47.2778 34.6518 47.3286 34.6799 47.3794C34.69 47.3979 34.6998 47.4167 34.7102 47.4349C34.7492 47.5036 34.7896 47.5712 34.8312 47.6377C34.841 47.6532 34.8514 47.6681 34.8612 47.6835C34.8937 47.7344 34.9266 47.7849 34.9606 47.8345C34.9764 47.8573 34.9928 47.8795 35.0088 47.9022C35.0381 47.9435 35.0674 47.9848 35.0978 48.0251C35.1161 48.0494 35.1348 48.073 35.1534 48.097C35.1827 48.1347 35.2122 48.1723 35.2424 48.2091C35.2623 48.2333 35.2825 48.2571 35.3028 48.2809C35.3329 48.3166 35.3636 48.3518 35.3946 48.3866C35.4155 48.41 35.4367 48.4331 35.4581 48.4561C35.4733 48.4725 35.4879 48.4895 35.5034 48.5057H5.44824C3.56436 48.5057 2.07347 47.1511 1.72074 45.2432H33.9822ZM44.9664 10.7568C44.9667 10.7512 44.9673 10.7455 44.968 10.7398C44.9717 10.7147 44.9763 10.6899 44.9806 10.6651C44.9865 10.6301 44.9925 10.5951 44.9994 10.5603C45.0047 10.5338 45.0106 10.5076 45.0164 10.4813C45.0236 10.4487 45.0309 10.4162 45.0389 10.384C45.0457 10.3568 45.0529 10.3298 45.0602 10.3029C45.0686 10.2722 45.0773 10.2415 45.0864 10.211C45.0946 10.1835 45.1032 10.1561 45.1121 10.1289C45.1215 10.0998 45.1313 10.0709 45.1415 10.0421C45.1513 10.0142 45.1613 9.98628 45.1718 9.95872C45.1821 9.93148 45.1929 9.90458 45.2038 9.87756C45.2153 9.84912 45.2268 9.82079 45.2391 9.79268C45.2499 9.76764 45.2614 9.74292 45.2727 9.7182C45.2862 9.689 45.2995 9.65958 45.3137 9.63081C45.3242 9.60937 45.3354 9.58837 45.3464 9.56715C45.3625 9.53565 45.3785 9.50415 45.3956 9.4732C45.4021 9.46117 45.4094 9.44958 45.416 9.43765C45.4918 9.30345 45.5751 9.17395 45.6661 9.05046C45.6669 9.04926 45.6677 9.04817 45.6686 9.04696C45.6979 9.00737 45.7282 8.96854 45.7589 8.93004C45.7638 8.92392 45.7685 8.91768 45.7735 8.91156C45.8035 8.87437 45.8346 8.83795 45.866 8.80196C45.8718 8.79529 45.8776 8.78851 45.8835 8.78184C45.9154 8.74575 45.9481 8.71042 45.9815 8.67553C45.987 8.66984 45.9923 8.66404 45.9979 8.65835C46.0325 8.6227 46.0677 8.58759 46.1036 8.55324C46.1076 8.54942 46.1117 8.54559 46.1157 8.54165C46.1535 8.50578 46.192 8.47056 46.2314 8.43621C46.2327 8.43501 46.2342 8.43392 46.2355 8.43271C46.7382 7.99488 47.3568 7.68612 48.0395 7.55902C48.0398 7.55891 48.0403 7.55891 48.0406 7.55881C48.0965 7.54841 48.1529 7.53923 48.2097 7.53135C48.2131 7.53091 48.2165 7.53048 48.2199 7.53004C48.274 7.5226 48.3285 7.51626 48.3833 7.51112C48.3916 7.51035 48.4 7.50991 48.4084 7.50926C48.4586 7.50488 48.5089 7.50116 48.5597 7.49876C48.589 7.49745 48.6185 7.49723 48.6481 7.49646C48.6798 7.4957 48.7114 7.49427 48.7433 7.49427C50.6272 7.49427 52.1181 8.84889 52.4708 10.7568H44.9664Z" fill="white"/>
<path d="M55.9992 20.9816C55.9991 20.9721 55.9989 20.9625 55.9986 20.9529C55.9953 20.8757 55.9814 20.8013 55.9581 20.7309C55.957 20.7274 55.9566 20.7238 55.9554 20.7204C55.9544 20.7175 55.9527 20.7149 55.9517 20.7121C55.9388 20.6761 55.924 20.6411 55.9065 20.6076C55.9043 20.6035 55.9018 20.5996 55.8996 20.5955C55.8834 20.5659 55.8654 20.5376 55.8459 20.5104C55.8417 20.5046 55.8378 20.4986 55.8335 20.4929C55.812 20.4644 55.7886 20.4375 55.7635 20.4122C55.758 20.4066 55.7522 20.4014 55.7467 20.3961C55.723 20.3733 55.6981 20.352 55.6719 20.3322C55.6684 20.3296 55.6651 20.3266 55.6615 20.324C55.6319 20.3026 55.6007 20.2834 55.5684 20.2659C55.5621 20.2625 55.5559 20.2595 55.5496 20.2563C55.5166 20.2397 55.483 20.2245 55.4476 20.2123C55.4474 20.2122 55.4472 20.2121 55.447 20.2121C55.4119 20.2001 55.3754 20.191 55.3384 20.1837C55.3302 20.182 55.322 20.1806 55.3136 20.1793C55.2766 20.1732 55.2389 20.1686 55.2003 20.1676C48.3318 19.9899 39.3755 21.6433 34.8475 26.8124C32.8658 29.0746 31.9514 31.9446 31.0672 34.72C30.9948 34.9471 30.9225 35.1742 30.8496 35.4009C30.8465 35.4104 30.8436 35.4201 30.8408 35.4298L29.4535 40.357C29.3307 40.7933 29.5849 41.2468 30.0212 41.3698C30.0956 41.3908 30.1705 41.4006 30.2441 41.4006C30.6025 41.4006 30.9319 41.1639 31.0339 40.8019L32.3206 36.232C33.8935 35.4948 35.1601 35.15 36.8709 34.6849C37.7584 34.4434 38.7643 34.1699 39.9815 33.7955C42.6131 32.9861 47.6614 29.5999 49.9848 27.0857C52.0168 24.8866 53.7266 23.2523 55.7019 21.6212C55.7042 21.6193 55.706 21.617 55.7083 21.6151C55.737 21.5907 55.7644 21.5648 55.7895 21.5366C55.7911 21.5349 55.7927 21.5334 55.7942 21.5317C55.8191 21.5036 55.8416 21.4734 55.8625 21.4419C55.8663 21.4361 55.87 21.4303 55.8738 21.4244C55.9131 21.3618 55.9442 21.2936 55.9656 21.221C55.9677 21.2141 55.9697 21.2073 55.9715 21.2003C55.9811 21.1647 55.9889 21.1283 55.9936 21.0909C55.9939 21.0894 55.9939 21.088 55.994 21.0865C55.997 21.0611 55.9992 21.0354 55.9999 21.0093C56.0002 20.9999 55.9993 20.9908 55.9992 20.9816ZM36.0825 27.8941C37.9932 25.7128 40.9217 24.0686 44.7868 23.0072C45.8256 22.7219 46.9233 22.4853 48.0545 22.2984C45.18 23.6924 42.4315 25.4384 40.8956 26.4644C38.4168 28.1204 35.7411 30.1291 33.7651 31.9156C34.3498 30.4344 35.0567 29.0652 36.0825 27.8941ZM48.779 25.9714C46.5178 28.4184 41.6341 31.5695 39.499 32.2261C38.3074 32.5925 37.3154 32.8624 36.4401 33.1004C35.6481 33.3158 34.9276 33.512 34.2152 33.7382C34.5339 33.4329 34.9075 33.0907 35.348 32.7065C37.1205 31.1603 39.4145 29.4284 41.8076 27.8298C45.9509 25.0618 49.7005 23.1189 52.4514 22.2766C51.2567 23.3769 50.0816 24.5616 48.779 25.9714Z" fill="white"/>
</svg>
