<svg width="56" height="56" viewBox="0 0 56 56" fill="none" xmlns="http://www.w3.org/2000/svg">
<g clip-path="url(#clip0)">
<path d="M13.125 3.5H14.875V5.25H13.125V3.5Z" fill="white"/>
<path d="M41.125 18.375H42.875V20.125H41.125V18.375Z" fill="white"/>
<path d="M46.375 3.5H48.125V5.25H46.375V3.5Z" fill="white"/>
<path d="M0 20.7484H1.75V22.4984H0V20.7484Z" fill="white"/>
<path d="M25.375 50.75H27.125V52.5H25.375V50.75Z" fill="white"/>
<path d="M19.6875 44.625C18.0031 44.625 16.625 46.0031 16.625 47.6875C16.625 49.3719 18.0031 50.75 19.6875 50.75C21.3719 50.75 22.75 49.3719 22.75 47.6875C22.75 46.0031 21.3719 44.625 19.6875 44.625ZM19.6875 49C18.9656 49 18.375 48.4094 18.375 47.6875C18.375 46.9656 18.9656 46.375 19.6875 46.375C20.4094 46.375 21 46.9656 21 47.6875C21 48.4094 20.4094 49 19.6875 49Z" fill="white"/>
<path d="M5.6875 7.875C7.37187 7.875 8.75 6.49687 8.75 4.8125C8.75 3.12813 7.37187 1.75 5.6875 1.75C4.00313 1.75 2.625 3.12813 2.625 4.8125C2.625 6.49687 4.00313 7.875 5.6875 7.875ZM5.6875 3.5C6.40937 3.5 7 4.09063 7 4.8125C7 5.53437 6.40937 6.125 5.6875 6.125C4.96563 6.125 4.375 5.53437 4.375 4.8125C4.375 4.09063 4.96563 3.5 5.6875 3.5Z" fill="white"/>
<path d="M24.0844 6.01562L26.6875 7.4375L28.1094 10.0406C28.2625 10.325 28.5578 10.5 28.875 10.5C29.1922 10.5 29.4875 10.325 29.6406 10.0406L31.0625 7.4375L33.6656 6.01562C33.95 5.8625 34.125 5.56719 34.125 5.25C34.125 4.93281 33.95 4.6375 33.6656 4.48438L31.0625 3.0625L29.6406 0.459375C29.4875 0.175 29.1922 0 28.875 0C28.5578 0 28.2625 0.175 28.1094 0.459375L26.6875 3.0625L24.0844 4.48438C23.8 4.6375 23.625 4.93281 23.625 5.25C23.625 5.56719 23.8 5.8625 24.0844 6.01562ZM27.7484 4.47344C27.8906 4.39688 28.0109 4.27656 28.0984 4.12344L28.875 2.70156L29.6516 4.12344C29.7281 4.26562 29.8484 4.38594 30.0016 4.47344L31.4234 5.25L30.0016 6.02656C29.8594 6.10312 29.7391 6.22344 29.6516 6.37656L28.875 7.79844L28.0984 6.37656C28.0219 6.23438 27.9016 6.11406 27.7484 6.02656L26.3266 5.25L27.7484 4.47344Z" fill="white"/>
<path d="M42.4156 49.9844L39.8125 48.5625L38.3906 45.9594C38.2375 45.675 37.9422 45.5 37.625 45.5C37.3078 45.5 37.0125 45.675 36.8594 45.9594L35.4375 48.5625L32.8344 49.9844C32.55 50.1375 32.375 50.4328 32.375 50.75C32.375 51.0672 32.55 51.3625 32.8344 51.5156L35.4375 52.9375L36.8594 55.5406C37.0125 55.825 37.3078 56 37.625 56C37.9422 56 38.2375 55.825 38.3906 55.5406L39.8125 52.9375L42.4156 51.5156C42.7 51.3625 42.875 51.0672 42.875 50.75C42.875 50.4328 42.7 50.1375 42.4156 49.9844ZM38.7516 51.5266C38.6094 51.6031 38.4891 51.7234 38.4016 51.8766L37.625 53.2984L36.8484 51.8766C36.7719 51.7344 36.6516 51.6141 36.4984 51.5266L35.0766 50.75L36.4984 49.9734C36.6406 49.8969 36.7609 49.7766 36.8484 49.6234L37.625 48.2016L38.4016 49.6234C38.4781 49.7656 38.5984 49.8859 38.7516 49.9734L40.1734 50.75L38.7516 51.5266Z" fill="white"/>
<path d="M55.9016 31.9812L49.875 19.9172V10.5C49.875 10.2156 49.7438 9.95313 49.5141 9.78906C49.2844 9.625 48.9891 9.58125 48.7266 9.66875L47.25 10.1609V8.75C47.25 8.3125 46.9328 7.95156 46.5063 7.88594C44.0891 7.525 41.6391 7.525 39.2437 7.88594C35.5469 8.44375 31.9594 9.89844 28.8203 12.0859C26.1516 10.5984 23.2969 9.48281 20.3219 8.77187C16.6359 7.88594 11.6922 7.79844 9.59219 7.875C9.12187 7.89688 8.75 8.27969 8.75 8.75V10.1609L7.27344 9.66875C7.01094 9.58125 6.71562 9.625 6.48594 9.78906C6.25625 9.95313 6.125 10.2156 6.125 10.5V19.9172L0.04375 31.9812C-0.021875 32.1016 -0.0546875 32.2328 -0.0546875 32.375V56H1.69531V32.7906L12.0641 24.2375C12.3047 25.375 12.3594 27.2563 10.9703 29.1594L6.34375 33.4906C6.16875 33.6547 6.07031 33.8844 6.07031 34.125V36.75C6.07031 37.2313 6.46406 37.625 6.94531 37.625C6.95625 37.625 8.09375 37.6578 8.93594 38.6859C9.975 39.9547 10.2047 42.2516 9.59219 45.325L11.3094 45.6641C11.5828 44.275 11.7141 43.0172 11.6813 41.9016C12.1953 41.8688 12.6984 41.8578 13.2016 41.8578C13.2344 43.7719 12.9391 48.7047 9.30781 49.9188C8.94687 50.0391 8.70625 50.3672 8.70625 50.75V56H10.4563V51.3516C12.5891 50.4 14.0219 48.3547 14.6344 45.4016C14.9188 44.0453 14.9625 42.7875 14.9516 41.9453C19.5125 42.3172 23.2203 43.9578 25.2656 45.0734C25.3422 45.1172 25.3859 45.1828 25.3859 45.2703V46.375C25.3859 46.8563 25.7797 47.25 26.2609 47.25H31.5109C31.9922 47.25 32.3859 46.8563 32.3859 46.375V45.1391C32.3859 45.0734 32.4187 45.0078 32.4625 44.9641C35.3609 42.6562 38.5766 41.9125 41.0266 41.7375C40.9828 44.0016 41.3328 49.4922 45.5 51.3516V56H47.25V50.75C47.25 50.3781 47.0094 50.0391 46.6484 49.9188C43.0062 48.7047 42.7328 43.6406 42.7766 41.6938C43.3891 41.7156 43.8922 41.7594 44.275 41.8031C44.2312 42.9406 44.3516 44.2313 44.6359 45.6641L46.3531 45.325C45.7406 42.2734 45.9594 39.9875 46.9875 38.7078C47.8297 37.6578 48.9562 37.625 49 37.6141C49.4813 37.6141 49.875 37.2203 49.875 36.7391V34.1141C49.875 33.8734 49.7766 33.6438 49.6016 33.4797L44.9859 29.1594C43.5859 27.2563 43.6516 25.375 43.8922 24.2375L54.2609 32.7906V56H56.0109V32.375C56 32.2328 55.9672 32.1016 55.9016 31.9812ZM52.5 29.0719L49.875 26.9062V23.8219L52.5 29.0719ZM48.125 11.7141V25.4734L47.25 24.7516V12.0094L48.125 11.7141ZM8.75 12.0094V24.7078L7.875 25.4297V11.7141L8.75 12.0094ZM6.125 26.8734L3.47812 29.0609L6.125 23.8109V26.8734ZM12.2172 30.3844C12.25 30.3516 12.2937 30.3078 12.3156 30.275C15.2359 26.3922 13.3547 22.5203 13.2781 22.3562C13.1578 22.1156 12.9391 21.9516 12.6766 21.8969C12.4141 21.8422 12.1406 21.9078 11.9437 22.0828L10.5 23.2641V9.60313C12.8078 9.58125 16.8438 9.73438 19.9172 10.4781C22.7391 11.1563 25.4625 12.2172 28 13.6391V40.5234C25.5719 39.2547 23.0016 38.2922 20.3328 37.6578C17.1062 36.8812 12.9062 36.7172 10.5 36.7391V32.0031L12.2172 30.3844ZM7.82031 34.5078L8.75 33.6438V36.3562C8.41094 36.1922 8.09375 36.0828 7.82031 36.0063V34.5078ZM31.3687 43.5969C30.8984 43.9688 30.625 44.5375 30.625 45.1391V45.5H27.125V45.2594C27.125 44.5375 26.7313 43.8703 26.0969 43.5312C23.3953 42.0656 18.0031 39.7469 11.4734 40.1734C11.3422 39.55 11.1453 38.9922 10.8828 38.4891C13.2344 38.4891 17.0078 38.6641 19.9172 39.3641C22.9031 40.075 25.7687 41.2234 28.4375 42.7656C28.5688 42.8422 28.7219 42.8859 28.875 42.8859C29.0281 42.8859 29.1812 42.8422 29.3125 42.7656C29.3453 42.7547 29.3672 42.7328 29.3891 42.7109C32.4078 40.5016 35.8969 39.0469 39.5063 38.5C41.3656 38.2156 43.2469 38.1719 45.1281 38.3578C44.8438 38.8609 44.6359 39.4406 44.4937 40.075C42.2844 39.7797 36.4656 39.5281 31.3687 43.5969ZM48.125 36.0063C47.8625 36.0719 47.5672 36.1703 47.25 36.3234V33.6875L48.125 34.5078V36.0063ZM43.2687 21.8969C43.0063 21.9516 42.7875 22.1266 42.6672 22.3562C42.5906 22.5203 40.7094 26.3812 43.6297 30.275C43.6625 30.3187 43.6953 30.3516 43.7281 30.3844L45.5 32.0469V36.6297C43.4109 36.4 41.3109 36.4438 39.2437 36.7609C35.9078 37.2641 32.6594 38.5 29.75 40.3484V13.5734C32.6813 11.5062 36.05 10.1391 39.5063 9.61406C41.4859 9.31875 43.4984 9.28594 45.5 9.51563V23.3078L44.0016 22.0719C43.7937 21.9078 43.5203 21.8422 43.2687 21.8969Z" fill="white"/>
<path d="M24.9376 19.1297L25.8017 17.6094C19.4908 14 13.2564 14.8422 12.9939 14.875L13.2455 16.6032C13.3111 16.6032 19.1408 15.8266 24.9376 19.1297Z" fill="white"/>
<path d="M24.9376 23.5047L25.8017 21.9844C19.4908 18.375 13.2564 19.2172 12.9939 19.25L13.2455 20.9782C13.3111 20.9782 19.1408 20.2016 24.9376 23.5047Z" fill="white"/>
<path d="M31.0625 35.1203L31.9266 36.6407C37.7016 33.3375 43.5641 34.1141 43.6187 34.125L43.8703 32.3969C43.6078 32.3422 37.3734 31.511 31.0625 35.1203Z" fill="white"/>
<path d="M31.0625 16.8328L31.9266 18.3531C37.7016 15.05 43.5641 15.8266 43.6187 15.8375L43.8703 14.1094C43.6078 14.0656 37.3734 13.2344 31.0625 16.8328Z" fill="white"/>
</g>
<defs>
<clipPath id="clip0">
<rect width="56" height="56" fill="white"/>
</clipPath>
</defs>
</svg>
