<svg width="66" height="66" viewBox="0 0 66 66" fill="none" xmlns="http://www.w3.org/2000/svg">
<path d="M29.9062 15.4471V18.5625C29.9062 19.383 30.2322 20.1699 30.8124 20.7501C31.3926 21.3303 32.1795 21.6562 33 21.6562C33.8205 21.6562 34.6074 21.3303 35.1876 20.7501C35.7678 20.1699 36.0937 19.383 36.0937 18.5625V15.4471C36.9595 14.7978 37.599 13.8925 37.9217 12.8595C38.2444 11.8265 38.2339 10.7182 37.8916 9.69153C37.5494 8.66486 36.8928 7.77189 36.0149 7.13911C35.137 6.50634 34.0822 6.16583 33 6.16583C31.9178 6.16583 30.863 6.50634 29.9851 7.13911C29.1072 7.77189 28.4506 8.66486 28.1084 9.69153C27.7661 10.7182 27.7556 11.8265 28.0783 12.8595C28.401 13.8925 29.0405 14.7978 29.9062 15.4471ZM34.0312 18.5625C34.0312 18.836 33.9226 19.0983 33.7292 19.2917C33.5358 19.4851 33.2735 19.5937 33 19.5937C32.7265 19.5937 32.4642 19.4851 32.2708 19.2917C32.0774 19.0983 31.9687 18.836 31.9687 18.5625V17.5312H34.0312V18.5625ZM33 8.24999C33.8205 8.24999 34.6074 8.57594 35.1876 9.15613C35.7678 9.73632 36.0937 10.5232 36.0937 11.3437C36.094 11.8845 35.951 12.4157 35.6793 12.8832C35.4076 13.3507 35.0169 13.7379 34.5469 14.0054C34.3904 14.0957 34.2604 14.2256 34.1699 14.382C34.0794 14.5383 34.0316 14.7157 34.0312 14.8964V15.4687H31.9687V14.8964C31.9684 14.7157 31.9206 14.5383 31.8301 14.382C31.7396 14.2256 31.6096 14.0957 31.4531 14.0054C30.9831 13.7379 30.5924 13.3507 30.3207 12.8832C30.049 12.4157 29.906 11.8845 29.9062 11.3437C29.9062 10.5232 30.2322 9.73632 30.8124 9.15613C31.3926 8.57594 32.1795 8.24999 33 8.24999Z" fill="white"/>
<path d="M41.25 12.375C41.8195 12.375 42.2812 11.9133 42.2812 11.3438C42.2812 10.7742 41.8195 10.3125 41.25 10.3125C40.6805 10.3125 40.2188 10.7742 40.2188 11.3438C40.2188 11.9133 40.6805 12.375 41.25 12.375Z" fill="white"/>
<path d="M24.75 12.375C25.3195 12.375 25.7812 11.9133 25.7812 11.3438C25.7812 10.7742 25.3195 10.3125 24.75 10.3125C24.1805 10.3125 23.7188 10.7742 23.7188 11.3438C23.7188 11.9133 24.1805 12.375 24.75 12.375Z" fill="white"/>
<path d="M33 4.125C33.5695 4.125 34.0312 3.66329 34.0312 3.09375C34.0312 2.52421 33.5695 2.0625 33 2.0625C32.4305 2.0625 31.9688 2.52421 31.9688 3.09375C31.9688 3.66329 32.4305 4.125 33 4.125Z" fill="white"/>
<path d="M38.1049 16.4485C37.9606 16.5927 37.8624 16.7764 37.8226 16.9765C37.7828 17.1765 37.8032 17.3839 37.8812 17.5723C37.9593 17.7608 38.0914 17.9219 38.261 18.0352C38.4306 18.1485 38.63 18.209 38.834 18.209C39.038 18.209 39.2373 18.1485 39.4069 18.0352C39.5765 17.9219 39.7087 17.7608 39.7868 17.5723C39.8648 17.3839 39.8852 17.1765 39.8454 16.9765C39.8056 16.7764 39.7073 16.5927 39.5631 16.4485C39.3697 16.2551 39.1074 16.1465 38.834 16.1465C38.5605 16.1465 38.2983 16.2551 38.1049 16.4485Z" fill="white"/>
<path d="M27.8956 6.23908C28.0398 6.09487 28.1381 5.91112 28.1779 5.71107C28.2177 5.51102 28.1973 5.30365 28.1193 5.1152C28.0412 4.92674 27.9091 4.76566 27.7395 4.65233C27.5699 4.53901 27.3705 4.47852 27.1665 4.47852C26.9625 4.47852 26.7631 4.53901 26.5935 4.65233C26.4239 4.76566 26.2918 4.92674 26.2137 5.1152C26.1357 5.30365 26.1153 5.51102 26.1551 5.71107C26.1949 5.91112 26.2932 6.09487 26.4374 6.23908C26.6308 6.43241 26.8931 6.54102 27.1665 6.54102C27.44 6.54102 27.7022 6.43241 27.8956 6.23908Z" fill="white"/>
<path d="M27.8956 17.9066C28.0398 17.7624 28.1381 17.5787 28.1779 17.3786C28.2177 17.1786 28.1973 16.9712 28.1193 16.7827C28.0412 16.5943 27.9091 16.4332 27.7395 16.3199C27.5699 16.2065 27.3705 16.1461 27.1665 16.1461C26.9625 16.1461 26.7631 16.2065 26.5935 16.3199C26.4239 16.4332 26.2918 16.5943 26.2137 16.7827C26.1357 16.9712 26.1153 17.1786 26.1551 17.3786C26.1949 17.5787 26.2932 17.7624 26.4374 17.9066C26.6308 18.0999 26.8931 18.2086 27.1665 18.2086C27.44 18.2086 27.7022 18.0999 27.8956 17.9066Z" fill="white"/>
<path d="M39.5631 6.23908C39.7073 6.09487 39.8056 5.91112 39.8454 5.71107C39.8852 5.51102 39.8648 5.30365 39.7868 5.1152C39.7087 4.92674 39.5765 4.76566 39.4069 4.65233C39.2373 4.53901 39.038 4.47852 38.834 4.47852C38.63 4.47852 38.4306 4.53901 38.261 4.65233C38.0914 4.76566 37.9593 4.92674 37.8812 5.1152C37.8032 5.30365 37.7828 5.51102 37.8226 5.71107C37.8624 5.91112 37.9606 6.09487 38.1049 6.23908C38.2983 6.43241 38.5605 6.54102 38.834 6.54102C39.1074 6.54102 39.3697 6.43241 39.5631 6.23908Z" fill="white"/>
<path d="M63.4221 22.5844L62.8178 22.2348C62.8343 22.0399 62.8425 21.847 62.8425 21.6542C62.8425 21.4613 62.8343 21.2685 62.8178 21.0736L63.4221 20.7281C63.657 20.5904 63.8279 20.3653 63.8975 20.1021C63.9671 19.8388 63.9298 19.5587 63.7936 19.3228C63.6575 19.087 63.4335 18.9146 63.1707 18.8433C62.9079 18.7719 62.6276 18.8074 62.3908 18.942L61.1874 19.6371C61.0031 19.7436 60.8562 19.9046 60.767 20.0979C60.6779 20.2912 60.6507 20.5074 60.6893 20.7168C60.8103 21.3386 60.8103 21.978 60.6893 22.5998C60.6507 22.8092 60.6779 23.0254 60.767 23.2187C60.8562 23.412 61.0031 23.573 61.1874 23.6796L61.4967 23.859L60.4655 25.6451L60.1561 25.4657C59.9715 25.3593 59.7585 25.3126 59.5463 25.3322C59.3341 25.3518 59.1332 25.4366 58.9712 25.575C58.4906 25.9856 57.9382 26.3037 57.3418 26.5134C57.1409 26.5846 56.9669 26.7164 56.8439 26.8906C56.7209 27.0647 56.6549 27.2727 56.655 27.4859V27.8438H54.5925V27.4838C54.5925 27.2705 54.5264 27.0624 54.4032 26.8883C54.28 26.7141 54.1058 26.5824 53.9047 26.5114C53.3088 26.3014 52.7568 25.9833 52.2763 25.5729C52.1142 25.4343 51.9131 25.3494 51.7007 25.3298C51.4884 25.3102 51.2751 25.357 51.0904 25.4636L50.781 25.6431L49.7498 23.8569L50.0592 23.6775C50.2435 23.571 50.3903 23.41 50.4795 23.2167C50.5687 23.0233 50.5958 22.8072 50.5572 22.5978C50.4376 21.9758 50.4376 21.3367 50.5572 20.7147C50.5958 20.5053 50.5687 20.2892 50.4795 20.0958C50.3903 19.9025 50.2435 19.7415 50.0592 19.635L49.7498 19.4556L50.781 17.6694L51.0904 17.8489C51.2751 17.9555 51.4884 18.0023 51.7007 17.9827C51.9131 17.9631 52.1142 17.8782 52.2763 17.7396C52.7568 17.3292 53.3088 17.0111 53.9047 16.8011C54.1058 16.7301 54.28 16.5984 54.4032 16.4242C54.5264 16.2501 54.5925 16.042 54.5925 15.8287V15.4688H56.655V15.8287C56.6549 16.0419 56.7209 16.2499 56.8439 16.424C56.9669 16.5982 57.1409 16.7299 57.3418 16.8011C57.9382 17.0108 58.4906 17.329 58.9712 17.7396C59.1332 17.878 59.3341 17.9628 59.5463 17.9824C59.7585 18.0019 59.9715 17.9553 60.1561 17.8489L61.3596 17.1538C61.4778 17.0866 61.5816 16.9967 61.6649 16.8892C61.7482 16.7817 61.8095 16.6588 61.8451 16.5275C61.8807 16.3963 61.8901 16.2593 61.8725 16.1244C61.855 15.9895 61.811 15.8595 61.743 15.7417C61.675 15.6239 61.5843 15.5207 61.4763 15.4381C61.3683 15.3555 61.245 15.2951 61.1135 15.2603C60.982 15.2256 60.8449 15.2172 60.7102 15.2356C60.5754 15.254 60.4457 15.2989 60.3283 15.3677L59.7209 15.7183C59.403 15.4981 59.0674 15.3046 58.7175 15.1398V14.4375C58.7175 14.164 58.6089 13.9017 58.4155 13.7083C58.2221 13.5149 57.9598 13.4062 57.6863 13.4062H53.5613C53.2878 13.4062 53.0255 13.5149 52.8321 13.7083C52.6387 13.9017 52.53 14.164 52.53 14.4375V15.1398C52.18 15.3049 51.844 15.4984 51.5256 15.7183L50.9182 15.3677C50.6813 15.2309 50.3999 15.1939 50.1357 15.2647C49.8715 15.3354 49.6463 15.5083 49.5095 15.7451L47.447 19.3174C47.3103 19.5542 47.2732 19.8357 47.344 20.0999C47.4148 20.3641 47.5876 20.5893 47.8244 20.7261L48.4298 21.0757C48.4133 21.2716 48.405 21.4655 48.405 21.6562C48.405 21.847 48.4133 22.0409 48.4298 22.2368L47.8244 22.5864C47.5876 22.7232 47.4148 22.9484 47.344 23.2126C47.2732 23.4768 47.3103 23.7583 47.447 23.9951L49.5095 27.5674C49.6463 27.8042 49.8715 27.9771 50.1357 28.0478C50.3999 28.1186 50.6813 28.0816 50.9182 27.9448L51.5256 27.5942C51.844 27.8141 52.18 28.0076 52.53 28.1727V28.875C52.53 29.1485 52.6387 29.4108 52.8321 29.6042C53.0255 29.7976 53.2878 29.9062 53.5613 29.9062H57.6863C57.9598 29.9062 58.2221 29.7976 58.4155 29.6042C58.6089 29.4108 58.7175 29.1485 58.7175 28.875V28.1727C59.0674 28.0079 59.403 27.8144 59.7209 27.5942L60.3283 27.9448C60.5652 28.0816 60.8467 28.1186 61.1109 28.0478C61.375 27.9771 61.6003 27.8042 61.737 27.5674L63.7995 23.9951C63.8676 23.8778 63.9118 23.7481 63.9296 23.6136C63.9475 23.4792 63.9386 23.3425 63.9035 23.2114C63.8685 23.0804 63.8079 22.9575 63.7253 22.8499C63.6427 22.7423 63.5396 22.6521 63.4221 22.5844Z" fill="white"/>
<path d="M52.53 21.6562C52.53 22.2681 52.7115 22.8663 53.0514 23.375C53.3914 23.8838 53.8745 24.2803 54.4399 24.5145C55.0052 24.7487 55.6272 24.8099 56.2273 24.6906C56.8275 24.5712 57.3787 24.2765 57.8114 23.8439C58.2441 23.4112 58.5387 22.8599 58.6581 22.2598C58.7775 21.6597 58.7162 21.0376 58.482 20.4723C58.2479 19.907 57.8513 19.4238 57.3426 19.0839C56.8338 18.7439 56.2357 18.5625 55.6238 18.5625C54.8033 18.5625 54.0164 18.8884 53.4362 19.4686C52.856 20.0488 52.53 20.8357 52.53 21.6562ZM56.655 21.6562C56.655 21.8602 56.5946 22.0596 56.4812 22.2292C56.3679 22.3988 56.2069 22.5309 56.0184 22.609C55.83 22.6871 55.6226 22.7075 55.4226 22.6677C55.2226 22.6279 55.0388 22.5297 54.8946 22.3855C54.7504 22.2412 54.6521 22.0575 54.6123 21.8574C54.5726 21.6574 54.593 21.45 54.671 21.2616C54.7491 21.0732 54.8813 20.9121 55.0509 20.7988C55.2204 20.6855 55.4198 20.625 55.6238 20.625C55.8973 20.625 56.1596 20.7336 56.353 20.927C56.5464 21.1204 56.655 21.3827 56.655 21.6562Z" fill="white"/>
<path d="M10.3125 28.875C10.039 28.875 9.77669 28.7664 9.5833 28.573C9.3899 28.3796 9.28125 28.1173 9.28125 27.8438C9.28125 27.5702 9.1726 27.3079 8.9792 27.1145C8.78581 26.9211 8.5235 26.8125 8.25 26.8125C7.9765 26.8125 7.71419 26.9211 7.5208 27.1145C7.3274 27.3079 7.21875 27.5702 7.21875 27.8438C7.22139 28.4813 7.42096 29.1025 7.79015 29.6223C8.15934 30.1422 8.68013 30.5352 9.28125 30.7478V31.9688C9.28125 32.2423 9.3899 32.5046 9.5833 32.698C9.77669 32.8914 10.039 33 10.3125 33C10.586 33 10.8483 32.8914 11.0417 32.698C11.2351 32.5046 11.3438 32.2423 11.3438 31.9688V30.7478C12.0313 30.5056 12.6109 30.0279 12.98 29.3994C13.349 28.7708 13.4838 28.0319 13.3602 27.3135C13.2367 26.5951 12.863 25.9437 12.3051 25.4745C11.7473 25.0053 11.0414 24.7486 10.3125 24.75C10.1085 24.75 9.90916 24.6895 9.73957 24.5762C9.56998 24.4629 9.4378 24.3018 9.35975 24.1134C9.2817 23.925 9.26127 23.7176 9.30106 23.5176C9.34086 23.3175 9.43907 23.1338 9.5833 22.9895C9.72752 22.8453 9.91127 22.7471 10.1113 22.7073C10.3114 22.6675 10.5187 22.6879 10.7071 22.766C10.8956 22.8441 11.0566 22.9762 11.17 23.1458C11.2833 23.3154 11.3438 23.5148 11.3438 23.7188C11.3438 23.9923 11.4524 24.2546 11.6458 24.448C11.8392 24.6414 12.1015 24.75 12.375 24.75C12.6485 24.75 12.9108 24.6414 13.1042 24.448C13.2976 24.2546 13.4062 23.9923 13.4062 23.7188C13.4036 23.0812 13.204 22.46 12.8348 21.9402C12.4657 21.4203 11.9449 21.0273 11.3438 20.8147V19.5938C11.3438 19.3202 11.2351 19.0579 11.0417 18.8645C10.8483 18.6711 10.586 18.5625 10.3125 18.5625C10.039 18.5625 9.77669 18.6711 9.5833 18.8645C9.3899 19.0579 9.28125 19.3202 9.28125 19.5938V20.8147C8.59373 21.0569 8.01411 21.5346 7.64503 22.1631C7.27595 22.7917 7.14124 23.5306 7.26476 24.249C7.38827 24.9674 7.76205 25.6188 8.31988 26.088C8.8777 26.5572 9.58359 26.8139 10.3125 26.8125C10.586 26.8125 10.8483 26.9211 11.0417 27.1145C11.2351 27.3079 11.3438 27.5702 11.3438 27.8438C11.3438 28.1173 11.2351 28.3796 11.0417 28.573C10.8483 28.7664 10.586 28.875 10.3125 28.875Z" fill="white"/>
<path d="M58.9878 42.6597L55.9208 42.2142L54.5534 39.435C54.4584 39.2744 54.3233 39.1414 54.1612 39.049C53.9992 38.9566 53.8159 38.908 53.6294 38.908C53.4429 38.908 53.2595 38.9566 53.0975 39.049C52.9355 39.1414 52.8003 39.2744 52.7054 39.435L51.3328 42.2194L48.2659 42.6649C48.0754 42.6925 47.8965 42.7729 47.7493 42.897C47.6022 43.0211 47.4927 43.1838 47.4332 43.3669C47.3738 43.55 47.3668 43.746 47.4129 43.9329C47.4591 44.1197 47.5567 44.2899 47.6945 44.4242L49.9138 46.5898L49.3899 49.6444C49.3574 49.834 49.3786 50.029 49.4512 50.2072C49.5237 50.3854 49.6446 50.5398 49.8003 50.6529C49.956 50.766 50.1402 50.8332 50.3321 50.8471C50.524 50.861 50.716 50.8208 50.8863 50.7313L53.6294 49.2876L56.3725 50.7313C56.5428 50.8208 56.7348 50.861 56.9267 50.8471C57.1186 50.8332 57.3028 50.766 57.4585 50.6529C57.6142 50.5398 57.7351 50.3854 57.8076 50.2072C57.8801 50.029 57.9013 49.834 57.8688 49.6444L57.3378 46.5826L59.557 44.417C59.6949 44.2827 59.7924 44.1125 59.8386 43.9256C59.8848 43.7388 59.8778 43.5427 59.8183 43.3597C59.7589 43.1766 59.6494 43.0139 59.5022 42.8898C59.3551 42.7657 59.1762 42.6853 58.9857 42.6577L58.9878 42.6597ZM55.5124 45.4843C55.3927 45.601 55.303 45.745 55.2513 45.904C55.1996 46.063 55.1873 46.2322 55.2154 46.397L55.4774 47.9263L54.1038 47.2044C53.9557 47.1272 53.7912 47.0868 53.6242 47.0868C53.4572 47.0868 53.2927 47.1272 53.1447 47.2044L51.7711 47.9263L52.033 46.397C52.0612 46.2322 52.0489 46.063 51.9972 45.904C51.9454 45.745 51.8558 45.601 51.736 45.4843L50.6254 44.4005L52.1609 44.1777C52.3262 44.1535 52.4831 44.0896 52.6182 43.9913C52.7533 43.893 52.8625 43.7634 52.9364 43.6136L53.6253 42.2214L54.3131 43.6136C54.387 43.7634 54.4962 43.893 54.6313 43.9913C54.7664 44.0896 54.9233 44.1535 55.0886 44.1777L56.6241 44.4005L55.5124 45.4843Z" fill="white"/>
<path d="M18.4844 45.77C18.5625 45.5815 18.5829 45.3741 18.543 45.174C18.5032 44.9739 18.4049 44.7901 18.2606 44.6459L13.1044 39.4896C12.911 39.2963 12.6487 39.1877 12.3753 39.1877C12.1018 39.1877 11.8396 39.2963 11.6462 39.4896L6.48993 44.6459C6.34575 44.7901 6.24756 44.9739 6.20779 45.1739C6.16802 45.3739 6.18844 45.5812 6.26648 45.7696C6.34451 45.958 6.47665 46.1191 6.6462 46.2324C6.81575 46.3457 7.01509 46.4062 7.21902 46.4062H9.28152V50.5312C9.28152 50.8047 9.39017 51.067 9.58356 51.2604C9.77696 51.4538 10.0393 51.5625 10.3128 51.5625C10.5863 51.5625 10.8486 51.4538 11.042 51.2604C11.2354 51.067 11.344 50.8047 11.344 50.5312V45.375C11.344 45.1015 11.2354 44.8392 11.042 44.6458C10.8486 44.4524 10.5863 44.3437 10.3128 44.3437H9.70845L12.3753 41.6769L15.0421 44.3437H14.4378C14.1643 44.3437 13.902 44.4524 13.7086 44.6458C13.5152 44.8392 13.4065 45.1015 13.4065 45.375V50.5312C13.4065 50.8047 13.5152 51.067 13.7086 51.2604C13.902 51.4538 14.1643 51.5625 14.4378 51.5625C14.7113 51.5625 14.9736 51.4538 15.167 51.2604C15.3604 51.067 15.469 50.8047 15.469 50.5312V46.4062H17.5315C17.7355 46.4063 17.9348 46.3459 18.1044 46.2326C18.2741 46.1194 18.4063 45.9584 18.4844 45.77Z" fill="white"/>
<path d="M17.9565 53.8725C17.7486 53.6947 17.4787 53.6068 17.206 53.6281C16.9333 53.6493 16.6802 53.7781 16.5024 53.9859C16.3247 54.1938 16.2367 54.4638 16.258 54.7365C16.2793 55.0091 16.408 55.2622 16.6159 55.44C17.3809 56.0972 18.1824 56.7108 19.0166 57.2777C19.2431 57.4311 19.5212 57.4883 19.7899 57.4367C20.0585 57.385 20.2956 57.2288 20.449 57.0023C20.6025 56.7759 20.6597 56.4977 20.608 56.2291C20.5564 55.9605 20.4002 55.7234 20.1737 55.5699C19.4031 55.0465 18.6629 54.4798 17.9565 53.8725Z" fill="white"/>
<path d="M51.08 52.9939C49.5278 54.4734 47.7905 55.7455 45.9114 56.7785C45.7895 56.8418 45.6815 56.9288 45.5937 57.0344C45.506 57.14 45.4401 57.2621 45.4002 57.3934C45.3602 57.5248 45.3468 57.6628 45.3609 57.7994C45.375 57.936 45.4162 58.0684 45.4821 58.1888C45.548 58.3093 45.6373 58.4153 45.7448 58.5008C45.8523 58.5863 45.9757 58.6494 46.1079 58.6865C46.2401 58.7237 46.3784 58.734 46.5146 58.717C46.6509 58.7 46.7824 58.6559 46.9013 58.5874C48.9375 57.4687 50.8201 56.0908 52.5021 54.4881C52.7002 54.2996 52.8153 54.04 52.8221 53.7665C52.8289 53.4931 52.7267 53.2281 52.5382 53.03C52.3496 52.8318 52.09 52.7167 51.8165 52.7099C51.5431 52.7031 51.2781 52.8053 51.08 52.9939Z" fill="white"/>
<path d="M19.4784 12.5483C17.1192 14.0745 15.0136 15.9608 13.2383 18.1387C13.0654 18.3508 12.9839 18.6228 13.0117 18.895C13.0394 19.1673 13.1742 19.4173 13.3863 19.5901C13.5984 19.763 13.8705 19.8445 14.1427 19.8168C14.4149 19.789 14.6649 19.6543 14.8378 19.4422C16.4764 17.4306 18.4206 15.6886 20.5993 14.2797C20.713 14.2061 20.8111 14.1108 20.888 13.9993C20.9649 13.8878 21.019 13.7623 21.0474 13.6298C21.0757 13.4974 21.0777 13.3607 21.0532 13.2275C21.0287 13.0943 20.9782 12.9672 20.9046 12.8535C20.831 12.7398 20.7357 12.6417 20.6242 12.5649C20.5127 12.488 20.3871 12.4338 20.2547 12.4055C20.1223 12.3772 19.9856 12.3752 19.8523 12.3997C19.7191 12.4242 19.5921 12.4747 19.4784 12.5483Z" fill="white"/>
<path d="M45.7992 13.2846C46.188 13.4908 46.5695 13.7156 46.9449 13.9466C47.06 14.0285 47.1907 14.0859 47.3289 14.1151C47.4671 14.1444 47.6098 14.145 47.7482 14.1168C47.8866 14.0887 48.0178 14.0324 48.1335 13.9514C48.2493 13.8705 48.3472 13.7666 48.4211 13.6463C48.4951 13.526 48.5436 13.3917 48.5635 13.2519C48.5835 13.1121 48.5745 12.9696 48.5371 12.8334C48.4997 12.6972 48.4348 12.5701 48.3463 12.46C48.2577 12.35 48.1476 12.2592 48.0225 12.1935C47.61 11.9439 47.1975 11.7026 46.785 11.4716C46.6659 11.4072 46.5352 11.3669 46.4004 11.3531C46.2657 11.3392 46.1295 11.352 45.9997 11.3907C45.8699 11.4294 45.749 11.4934 45.6439 11.5788C45.5388 11.6643 45.4516 11.7696 45.3872 11.8888C45.3228 12.0079 45.2825 12.1386 45.2686 12.2734C45.2547 12.4081 45.2675 12.5443 45.3063 12.6741C45.345 12.8039 45.4089 12.9248 45.4944 13.0299C45.5798 13.135 45.6852 13.2222 45.8043 13.2866L45.7992 13.2846Z" fill="white"/>
<path d="M8.45625 39.3319C8.49936 39.3322 8.54244 39.3294 8.58516 39.3236C8.72012 39.3077 8.85061 39.2652 8.9691 39.1986C9.08759 39.1321 9.19176 39.0427 9.27562 38.9358C9.35947 38.8288 9.42136 38.7064 9.45773 38.5754C9.49409 38.4445 9.50421 38.3076 9.4875 38.1727C9.35388 37.1413 9.28499 36.1025 9.28125 35.0625C9.28125 34.789 9.1726 34.5267 8.97921 34.3333C8.78581 34.1399 8.52351 34.0312 8.25 34.0312C7.9765 34.0312 7.71419 34.1399 7.5208 34.3333C7.3274 34.5267 7.21875 34.789 7.21875 35.0625C7.2206 36.1879 7.29327 37.3122 7.43634 38.4285C7.46744 38.6773 7.58814 38.9063 7.77587 39.0726C7.96359 39.2389 8.20548 39.331 8.45625 39.3319Z" fill="white"/>
<path d="M59.6416 31.9688C59.5066 31.9795 59.375 32.0166 59.2544 32.0782C59.1337 32.1397 59.0263 32.2244 58.9384 32.3275C58.8505 32.4305 58.7838 32.5499 58.742 32.6787C58.7002 32.8076 58.6842 32.9434 58.6949 33.0784C58.7537 33.8168 58.7816 34.4644 58.7816 35.0625C58.7791 36.5217 58.649 37.9779 58.3928 39.4144C58.3451 39.6835 58.4062 39.9605 58.5626 40.1847C58.719 40.4088 58.958 40.5616 59.2271 40.6096C59.2869 40.6207 59.3477 40.6262 59.4086 40.6261C59.6505 40.6257 59.8846 40.5403 60.0699 40.3848C60.2552 40.2293 60.38 40.0135 60.4223 39.7753C60.7008 38.2198 60.8419 36.6428 60.8441 35.0625C60.8441 34.4097 60.8142 33.7085 60.7513 32.9185C60.7289 32.6459 60.5997 32.3932 60.3919 32.2153C60.1841 32.0374 59.9144 31.9488 59.6416 31.9688Z" fill="white"/>
<path d="M37.5777 46.4289C38.613 45.2956 39.1872 43.8162 39.1875 42.2812V41.25C39.1875 40.9765 39.0789 40.7142 38.8855 40.5208C38.6921 40.3274 38.4298 40.2188 38.1562 40.2188C37.8827 40.2188 37.6204 40.3274 37.427 40.5208C37.2336 40.7142 37.125 40.9765 37.125 41.25V42.2812C37.125 43.3753 36.6904 44.4245 35.9168 45.1981C35.1432 45.9717 34.094 46.4062 33 46.4062C31.906 46.4062 30.8568 45.9717 30.0832 45.1981C29.3096 44.4245 28.875 43.3753 28.875 42.2812V38.1562H38.1562C38.4298 38.1562 38.6921 38.0476 38.8855 37.8542C39.0789 37.6608 39.1875 37.3985 39.1875 37.125C39.1859 35.758 38.6421 34.4474 37.6755 33.4808C36.7088 32.5142 35.3983 31.9704 34.0312 31.9688H25.7812C25.5077 31.9688 25.2454 32.0774 25.052 32.2708C24.8586 32.4642 24.75 32.7265 24.75 33V35.0625C24.7526 35.7001 24.9522 36.3213 25.3214 36.8411C25.6906 37.3609 26.2114 37.754 26.8125 37.9665V42.2812C26.8128 43.8162 27.387 45.2956 28.4223 46.4289C26.8649 46.5432 25.4082 47.2421 24.3446 48.3855C23.281 49.5289 22.689 51.0321 22.6875 52.5938V62.9062C22.6875 63.1798 22.7961 63.4421 22.9895 63.6355C23.1829 63.8289 23.4452 63.9375 23.7188 63.9375C23.9923 63.9375 24.2546 63.8289 24.448 63.6355C24.6414 63.4421 24.75 63.1798 24.75 62.9062V52.5938C24.75 51.4997 25.1846 50.4505 25.9582 49.6769C26.7318 48.9033 27.781 48.4688 28.875 48.4688H29.9062V49.5C29.906 50.3156 30.229 51.098 30.8045 51.6759L29.9124 59.6991C29.8955 59.8527 29.9133 60.0082 29.9645 60.154C30.0157 60.2999 30.0991 60.4323 30.2084 60.5416L32.2709 62.6041C32.4643 62.7974 32.7265 62.906 33 62.906C33.2735 62.906 33.5357 62.7974 33.7291 62.6041L35.3997 60.9335C35.6323 60.7027 35.8095 60.4221 35.9179 60.1129C36.0263 59.8037 36.0632 59.4739 36.0257 59.1484L35.2007 51.6749C35.7744 51.0967 36.0956 50.3146 36.0938 49.5V48.4688H37.125C38.219 48.4688 39.2682 48.9033 40.0418 49.6769C40.8154 50.4505 41.25 51.4997 41.25 52.5938V62.9062C41.25 63.1798 41.3586 63.4421 41.552 63.6355C41.7454 63.8289 42.0077 63.9375 42.2812 63.9375C42.5548 63.9375 42.8171 63.8289 43.0105 63.6355C43.2039 63.4421 43.3125 63.1798 43.3125 62.9062V52.5938C43.311 51.0321 42.719 49.5289 41.6554 48.3855C40.5918 47.2421 39.1351 46.5432 37.5777 46.4289ZM26.8125 34.0312H34.0312C34.6709 34.032 35.2947 34.2307 35.817 34.5999C36.3393 34.9692 36.7346 35.491 36.9487 36.0938H27.8438C27.5702 36.0938 27.3079 35.9851 27.1145 35.7917C26.9211 35.5983 26.8125 35.336 26.8125 35.0625V34.0312ZM33.9415 59.4753L33 60.4168L32.0183 59.434L32.7917 52.5731C32.8618 52.5731 32.9288 52.5938 32.9979 52.5938C33.067 52.5938 33.1444 52.5773 33.2186 52.5711L33.9745 59.3773C33.9766 59.3951 33.9747 59.413 33.969 59.43C33.9632 59.4469 33.9539 59.4624 33.9415 59.4753ZM34.0312 49.5C34.0312 49.7735 33.9226 50.0358 33.7292 50.2292C33.5358 50.4226 33.2735 50.5312 33 50.5312C32.7265 50.5312 32.4642 50.4226 32.2708 50.2292C32.0774 50.0358 31.9688 49.7735 31.9688 49.5V48.4688H34.0312V49.5Z" fill="white"/>
</svg>
