<svg width="57" height="57" viewBox="0 0 57 57" fill="none" xmlns="http://www.w3.org/2000/svg">
<path d="M32.9708 11.5587C34.3055 10.3417 35.1501 8.59465 35.1501 6.65C35.1501 2.98395 32.1671 0 28.5001 0C24.8331 0 21.8501 2.98395 21.8501 6.65C21.8501 8.59465 22.6946 10.3417 24.0294 11.5587C20.0878 12.3187 17.1001 15.79 17.1001 19.95V23.75C17.1001 24.2754 17.5257 24.7 18.0501 24.7H38.9501C39.4745 24.7 39.9001 24.2754 39.9001 23.75V19.95C39.9001 15.79 36.9123 12.3187 32.9708 11.5587ZM23.7501 6.65C23.7501 4.03085 25.8809 1.9 28.5001 1.9C31.1192 1.9 33.2501 4.03085 33.2501 6.65C33.2501 9.26915 31.1192 11.4 28.5001 11.4C25.8809 11.4 23.7501 9.26915 23.7501 6.65ZM38.0001 22.8H19.0001V19.95C19.0001 16.284 21.9831 13.3 25.6501 13.3H31.3501C35.0171 13.3 38.0001 16.284 38.0001 19.95V22.8Z" fill="white"/>
<path d="M15.8707 43.8587C17.2055 42.6417 18.05 40.8947 18.05 38.95C18.05 35.284 15.067 32.3 11.4 32.3C7.733 32.3 4.75 35.284 4.75 38.95C4.75 40.8947 5.59455 42.6417 6.9293 43.8587C2.98775 44.6187 0 48.09 0 52.25V56.05C0 56.5754 0.4256 57 0.95 57H21.85C22.3744 57 22.8 56.5754 22.8 56.05V52.25C22.8 48.09 19.8123 44.6187 15.8707 43.8587ZM6.65 38.95C6.65 36.3309 8.78085 34.2 11.4 34.2C14.0192 34.2 16.15 36.3309 16.15 38.95C16.15 41.5692 14.0192 43.7 11.4 43.7C8.78085 43.7 6.65 41.5692 6.65 38.95ZM20.9 55.1H1.9V52.25C1.9 48.584 4.883 45.6 8.55 45.6H14.25C17.917 45.6 20.9 48.584 20.9 52.25V55.1Z" fill="white"/>
<path d="M50.0707 43.8587C51.4054 42.6417 52.25 40.8947 52.25 38.95C52.25 35.284 49.267 32.3 45.6 32.3C41.933 32.3 38.95 35.284 38.95 38.95C38.95 40.8947 39.7945 42.6417 41.1293 43.8587C37.1877 44.6187 34.2 48.09 34.2 52.25V56.05C34.2 56.5754 34.6256 57 35.15 57H56.05C56.5744 57 57 56.5754 57 56.05V52.25C57 48.09 54.0122 44.6187 50.0707 43.8587ZM40.85 38.95C40.85 36.3309 42.9808 34.2 45.6 34.2C48.2191 34.2 50.35 36.3309 50.35 38.95C50.35 41.5692 48.2191 43.7 45.6 43.7C42.9808 43.7 40.85 41.5692 40.85 38.95ZM55.1 55.1H36.1V52.25C36.1 48.584 39.083 45.6 42.75 45.6H48.45C52.117 45.6 55.1 48.584 55.1 52.25V55.1Z" fill="white"/>
<path d="M5.71817 30.3696L3.82007 30.4437C3.84572 31.0983 3.89797 31.7613 3.97587 32.413L5.86257 32.187C5.79037 31.5856 5.74192 30.9738 5.71817 30.3696Z" fill="white"/>
<path d="M3.97492 26.5022C3.89797 27.1501 3.84477 27.8122 3.82007 28.4706L5.71817 28.5447C5.74192 27.9367 5.79037 27.3258 5.86162 26.7264L3.97492 26.5022Z" fill="white"/>
<path d="M13.5272 9.80209C13.0076 10.1982 12.4955 10.6219 12.0044 11.0627L13.2745 12.4763C13.7267 12.0697 14.1989 11.6783 14.6786 11.3135L13.5272 9.80209Z" fill="white"/>
<path d="M6.14377 18.9335C5.86447 19.5273 5.60607 20.1391 5.37427 20.7556L7.15267 21.4235C7.36641 20.8554 7.60486 20.2911 7.86231 19.7448L6.14377 18.9335Z" fill="white"/>
<path d="M4.75304 22.6319C4.57254 23.2598 4.41579 23.9068 4.28564 24.5509L6.14859 24.9261C6.26829 24.3324 6.41269 23.7358 6.57989 23.1553L4.75304 22.6319Z" fill="white"/>
<path d="M10.5896 12.4422C10.1345 12.921 9.69751 13.4197 9.28711 13.9261L10.7644 15.1212C11.1425 14.6538 11.5472 14.1921 11.9671 13.7503L10.5896 12.4422Z" fill="white"/>
<path d="M16.8461 7.66745C16.2714 7.9743 15.6985 8.31155 15.1418 8.6697L16.1716 10.2676C16.6846 9.93605 17.2128 9.6254 17.741 9.34325L16.8461 7.66745Z" fill="white"/>
<path d="M8.10734 15.5088C7.73589 16.0512 7.38249 16.6136 7.05664 17.1827L8.70489 18.127C9.00509 17.6026 9.33189 17.0829 9.67484 16.5832L8.10734 15.5088Z" fill="white"/>
<path d="M23.9988 51.8054L23.6235 53.6684C24.2629 53.7976 24.9203 53.9011 25.5767 53.9781L25.7971 52.0914C25.1939 52.0201 24.5878 51.9242 23.9988 51.8054Z" fill="white"/>
<path d="M33.0607 51.794C32.4708 51.9137 31.8656 52.0115 31.2595 52.0856L31.4885 53.9723C32.144 53.8925 32.7995 53.7861 33.4379 53.6569L33.0607 51.794Z" fill="white"/>
<path d="M29.4432 52.231C28.8362 52.2548 28.2225 52.2576 27.6192 52.2339L27.5442 54.132C27.8605 54.1453 28.1797 54.151 28.5027 54.151C28.8428 54.1491 29.182 54.1424 29.5192 54.1291L29.4432 52.231Z" fill="white"/>
<path d="M44.9997 11.0703L43.7305 12.4839C44.1827 12.8905 44.6216 13.318 45.0367 13.755L46.4161 12.4488C45.9658 11.9738 45.4899 11.5102 44.9997 11.0703Z" fill="white"/>
<path d="M47.7168 13.9317L46.2395 15.1268C46.6186 15.5952 46.9853 16.0882 47.3292 16.5898L48.8957 15.5154C48.5233 14.9729 48.1272 14.44 47.7168 13.9317Z" fill="white"/>
<path d="M53.1798 28.4734L51.2817 28.5475C51.2941 28.8468 51.2998 29.1489 51.2998 29.45C51.2998 29.7588 51.2941 30.0656 51.2817 30.3725L53.1798 30.4466C53.1931 30.116 53.1998 29.7835 53.1998 29.4481C53.1998 29.1223 53.1931 28.7964 53.1798 28.4734Z" fill="white"/>
<path d="M49.9471 17.1874L48.2979 18.1326C48.599 18.658 48.8821 19.2023 49.1405 19.7495L50.8591 18.9382C50.5798 18.3454 50.2729 17.7564 49.9471 17.1874Z" fill="white"/>
<path d="M51.6275 20.7594L49.8491 21.4282C50.0619 21.9944 50.2538 22.5768 50.421 23.1582L52.2479 22.6347C52.0674 22.0039 51.8584 21.3731 51.6275 20.7594Z" fill="white"/>
<path d="M52.7136 24.5547L50.8516 24.929C50.9713 25.5237 51.0682 26.1298 51.1385 26.7302L53.0252 26.506C52.9482 25.8562 52.8437 25.1997 52.7136 24.5547Z" fill="white"/>
<path d="M41.8636 8.67349L40.8347 10.2714C41.342 10.5982 41.8436 10.9506 42.3272 11.3202L43.4805 9.80874C42.957 9.40879 42.4136 9.02784 41.8636 8.67349Z" fill="white"/>
<path d="M38.3835 6.80769L37.6226 8.54809C38.1764 8.79034 38.7274 9.05824 39.2623 9.34514L40.161 7.67124C39.5824 7.35964 38.9839 7.06894 38.3835 6.80769Z" fill="white"/>
</svg>
