<svg width="49" height="53" viewBox="0 0 49 53" fill="none" xmlns="http://www.w3.org/2000/svg">
<g clip-path="url(#clip0)">
<path d="M7.69657 42.9514C9.33981 41.2808 9.41994 38.4857 7.87542 36.7083C6.3309 34.9309 3.74676 34.8442 2.10343 36.5148C0.460192 38.1854 0.380057 40.9804 1.92458 42.7578C1.98236 42.8243 2.04197 42.8888 2.10343 42.9513C0.812073 43.7063 0.00520644 45.1641 1.92442e-07 46.7519V52.1166C-0.000306058 52.6042 0.364948 52.9996 0.815748 53C0.816054 53 0.816361 53 0.816667 53H8.98333C9.43413 53.0003 9.79969 52.6052 9.8 52.1176C9.8 52.1173 9.8 52.117 9.8 52.1166V46.7519C9.79479 45.1641 8.98793 43.7063 7.69657 42.9514ZM4.9 37.1C6.25311 37.1 7.35 38.2864 7.35 39.75C7.35 41.2135 6.25311 42.4 4.9 42.4C3.54689 42.4 2.45 41.2135 2.45 39.75C2.45143 38.2871 3.5475 37.1015 4.9 37.1ZM8.16667 51.2333H1.63333V46.7519C1.63456 45.3247 2.70398 44.168 4.02351 44.1666H5.77649C7.09602 44.168 8.16544 45.3247 8.16667 46.7519V51.2333Z" fill="white"/>
<path d="M20.7634 42.9516C22.4066 41.281 22.4867 38.4859 20.9422 36.7085C19.3977 34.9311 16.8136 34.8444 15.1703 36.5151C13.5271 38.1857 13.447 40.9807 14.9915 42.7581C15.0493 42.8246 15.1089 42.8891 15.1703 42.9516C13.8789 43.7065 13.072 45.1643 13.0669 46.7521V52.1168C13.0666 52.6044 13.4318 52.9998 13.8826 53.0002C13.8829 53.0002 13.8833 53.0002 13.8836 53.0002H22.0502C22.501 53.0005 22.8666 52.6054 22.8669 52.1178C22.8669 52.1175 22.8669 52.1172 22.8669 52.1168V46.7521C22.8616 45.1643 22.0547 43.7065 20.7634 42.9516ZM17.9668 37.1002C19.3199 37.1002 20.4168 38.2866 20.4168 39.7502C20.4168 41.2137 19.3199 42.4002 17.9668 42.4002C16.6137 42.4002 15.5168 41.2137 15.5168 39.7502C15.5182 38.2872 16.6143 37.1017 17.9668 37.1002ZM21.2335 51.2335H14.7001V46.7521C14.7014 45.3249 15.7708 44.1681 17.0903 44.1668H18.8433C20.1628 44.1681 21.2322 45.3249 21.2335 46.7521V51.2335Z" fill="white"/>
<path d="M33.83 42.9516C35.4733 41.281 35.5534 38.4859 34.0089 36.7085C32.4643 34.9311 29.8802 34.8444 28.237 36.5151C26.5937 38.1857 26.5136 40.9807 28.0581 42.7581C28.1159 42.8246 28.1755 42.8891 28.237 42.9516C26.9455 43.7065 26.1386 45.1643 26.1335 46.7521V52.1168C26.1332 52.6044 26.4985 52.9998 26.9493 53.0002C26.9496 53.0002 26.9499 53.0002 26.9502 53.0002H35.1169C35.5677 53.0005 35.9332 52.6054 35.9335 52.1178C35.9335 52.1175 35.9335 52.1172 35.9335 52.1168V46.7521C35.9282 45.1643 35.1214 43.7065 33.83 42.9516ZM31.0334 37.1002C32.3866 37.1002 33.4834 38.2866 33.4834 39.7502C33.4834 41.2137 32.3866 42.4002 31.0334 42.4002C29.6803 42.4002 28.5834 41.2137 28.5834 39.7502C28.5849 38.2872 29.6809 37.1017 31.0334 37.1002ZM34.3001 51.2335H27.7668V46.7521C27.768 45.3249 28.8374 44.1681 30.157 44.1668H31.9099C33.2295 44.1681 34.2989 45.3249 34.3001 46.7521V51.2335Z" fill="white"/>
<path d="M46.8967 42.9516C48.5399 41.281 48.62 38.4859 47.0755 36.7085C45.531 34.9311 42.9469 34.8444 41.3036 36.5151C39.6604 38.1857 39.5803 40.9807 41.1248 42.7581C41.1826 42.8246 41.2422 42.8891 41.3036 42.9516C40.0122 43.7065 39.2053 45.1643 39.2002 46.7521V52.1168C39.1999 52.6044 39.5651 52.9998 40.0159 53.0002C40.0162 53.0002 40.0166 53.0002 40.0169 53.0002H48.1835C48.6343 53.0005 48.9999 52.6054 49.0002 52.1178C49.0002 52.1175 49.0002 52.1172 49.0002 52.1168V46.7521C48.9949 45.1643 48.188 43.7065 46.8967 42.9516ZM44.1001 37.1002C45.4532 37.1002 46.5501 38.2866 46.5501 39.7502C46.5501 41.2137 45.4532 42.4002 44.1001 42.4002C42.747 42.4002 41.6501 41.2137 41.6501 39.7502C41.6515 38.2872 42.7476 37.1017 44.1001 37.1002ZM47.3668 51.2335H40.8334V46.7521C40.8347 45.3249 41.9041 44.1681 43.2236 44.1668H44.9766C46.2961 44.1681 47.3655 45.3249 47.3668 46.7521V51.2335Z" fill="white"/>
<path d="M29.4008 4.41675C29.4005 4.41675 29.4002 4.41675 29.3999 4.41675H17.9666C17.5158 4.41642 17.1502 4.81149 17.1499 5.29909C17.1499 5.29942 17.1499 5.29975 17.1499 5.30008V21.2001C17.1496 21.6877 17.5149 22.0831 17.9657 22.0834C17.966 22.0834 17.9663 22.0834 17.9666 22.0834H29.3999C29.8507 22.0837 30.2163 21.6887 30.2166 21.2011C30.2166 21.2007 30.2166 21.2004 30.2166 21.2001V5.30008C30.2169 4.81248 29.8516 4.41708 29.4008 4.41675ZM28.5832 20.3167H18.7832V6.18341H28.5832V20.3167Z" fill="white"/>
<path d="M43.2184 4.66659C43.1837 4.62729 43.1482 4.58886 43.1118 4.55132C41.7941 3.19871 39.7281 3.19871 38.4104 4.55132L38.3832 4.57981L38.3561 4.55132C37.0384 3.19871 34.9723 3.19871 33.6546 4.55132C32.3799 5.86638 32.3322 8.0502 33.5481 9.42898C33.5828 9.46829 33.6183 9.50671 33.6546 9.54425L37.8162 13.8858C38.1326 14.216 38.6338 14.216 38.9502 13.8858L43.1117 9.54425C44.3864 8.22919 44.4342 6.04537 43.2184 4.66659ZM42.0429 8.20214C42.0218 8.22632 42 8.24984 41.9777 8.27269L38.3832 12.0226L34.7888 8.27269C34.1633 7.63515 34.1341 6.56996 34.7235 5.89343C34.7447 5.86925 34.7664 5.84573 34.7888 5.82288C35.471 5.12361 36.5398 5.12361 37.222 5.82288L37.8162 6.44309C38.1328 6.77257 38.6336 6.77257 38.9502 6.44309L39.5443 5.82288C40.2263 5.12284 41.2956 5.12284 41.9776 5.82288C42.6031 6.46031 42.6323 7.52561 42.0429 8.20214Z" fill="white"/>
<path d="M26.7862 12.7202L24.3362 9.1869C24.0397 8.79669 23.5069 8.74038 23.1462 9.06103C23.1037 9.09879 23.0647 9.14097 23.0298 9.1869L20.5798 12.7202C20.3621 13.034 20.3621 13.4657 20.5798 13.7796L23.0298 17.3129C23.2998 17.7031 23.8111 17.7826 24.1718 17.4907C24.2342 17.4402 24.2895 17.3804 24.3362 17.3129L26.7862 13.7796C27.0039 13.4658 27.0039 13.034 26.7862 12.7202ZM23.683 15.3107L22.2539 13.2499L23.683 11.1891L25.1122 13.2499L23.683 15.3107Z" fill="white"/>
<path d="M38.3834 15.8999C34.7752 15.8999 31.8501 19.0638 31.8501 22.9666C31.8501 26.8694 34.7752 30.0332 38.3834 30.0332C41.9917 30.0332 44.9168 26.8694 44.9168 22.9666C44.9127 19.0657 41.9899 15.9043 38.3834 15.8999ZM38.3834 28.2666C35.6772 28.2666 33.4834 25.8937 33.4834 22.9666C33.4834 20.0394 35.6772 17.6666 38.3834 17.6666C41.0897 17.6666 43.2834 20.0394 43.2834 22.9666C43.2805 25.8924 41.0884 28.2634 38.3834 28.2666Z" fill="white"/>
<path d="M39.2 24.7334C39.1997 25.2211 38.8343 25.6164 38.3833 25.6167C37.9324 25.6164 37.567 25.2211 37.5667 24.7334H35.9333C35.9333 26.197 37.0302 27.3834 38.3833 27.3834C39.7365 27.3834 40.8333 26.197 40.8333 24.7334H39.2Z" fill="white"/>
<path d="M40.425 20.3167C39.7484 20.3167 39.2 20.9099 39.2 21.6416C39.2 22.3734 39.7484 22.9666 40.425 22.9666C41.1015 22.9666 41.65 22.3734 41.65 21.6416C41.6492 20.9102 41.1012 20.3174 40.425 20.3167ZM40.425 22.0833C40.1995 22.0833 40.0166 21.8856 40.0166 21.6416C40.0166 21.3977 40.1995 21.2 40.425 21.2C40.6505 21.2 40.8333 21.3977 40.8333 21.6416C40.8329 21.8853 40.6503 22.0829 40.425 22.0833Z" fill="white"/>
<path d="M36.3417 20.3167C35.6652 20.3167 35.1167 20.9099 35.1167 21.6416C35.1167 22.3734 35.6652 22.9666 36.3417 22.9666C37.0179 22.9659 37.566 22.373 37.5667 21.6416C37.5667 20.9099 37.0182 20.3167 36.3417 20.3167ZM36.3417 22.0833C36.1164 22.0829 35.9338 21.8853 35.9334 21.6416C35.9334 21.3977 36.1162 21.2 36.3417 21.2C36.5672 21.2 36.75 21.3977 36.75 21.6416C36.75 21.8856 36.5672 22.0833 36.3417 22.0833Z" fill="white"/>
<path d="M14.7008 17.6667C14.7005 17.6667 14.7002 17.6667 14.6999 17.6667H4.89992C4.44912 17.6664 4.08356 18.0615 4.08325 18.5491C4.08325 18.5494 4.08325 18.5498 4.08325 18.5501V24.7334C4.08295 25.221 4.4482 25.6164 4.899 25.6168C4.89931 25.6168 4.89961 25.6168 4.89992 25.6168H7.87075L12.5434 29.8289C12.89 30.1413 13.4051 30.0906 13.6939 29.7157C13.8521 29.5105 13.9158 29.2386 13.8673 28.9766L13.246 25.6168H14.6999C15.1507 25.6171 15.5163 25.222 15.5166 24.7344C15.5166 24.7341 15.5166 24.7337 15.5166 24.7334V18.5501C15.5169 18.0625 15.1516 17.6671 14.7008 17.6667ZM13.8833 23.8501H12.2499C11.7989 23.8501 11.4333 24.2456 11.4334 24.7335C11.4334 24.7917 11.4387 24.8498 11.4493 24.9069L11.8122 26.8693L8.68986 24.0546C8.54276 23.9224 8.35769 23.8501 8.16658 23.8501H5.71659V19.4334H13.8833V23.8501Z" fill="white"/>
<path d="M39.5294 0H9.47058C4.24258 0.00629375 0.00581875 4.58892 0 10.2437V23.3229C0.00581875 28.9777 4.24258 33.5604 9.47058 33.5667H39.5293C44.7574 33.5604 48.9941 28.9778 48.9999 23.323V10.2437C48.9942 4.58892 44.7574 0.00629375 39.5294 0ZM47.3667 23.323C47.362 28.0027 43.8558 31.795 39.5294 31.8H9.47058C5.14418 31.7949 1.63803 28.0026 1.63333 23.323V10.2437C1.63803 5.56412 5.14418 1.77175 9.47058 1.76667H39.5293C43.8558 1.77175 47.362 5.56412 47.3666 10.2437V23.323H47.3667Z" fill="white"/>
<path d="M10.6933 3.60862C10.3977 3.55827 10.0991 3.53298 9.79985 3.5332C7.3772 3.53795 5.21998 5.19244 4.41403 7.66356L4.40933 7.67295L4.40576 7.68785C4.3048 8.00044 4.22752 8.32142 4.17465 8.64748C4.16893 8.68171 4.16525 8.71583 4.16015 8.75006C3.66872 12.1212 5.79695 15.285 8.91366 15.8165C12.0304 16.3481 14.9554 14.0461 15.4468 10.675C15.9382 7.30382 13.81 4.14016 10.6933 3.60862ZM8.91499 14.0221C6.76583 13.5374 5.37392 11.2769 5.78869 8.94506C7.65385 9.39412 8.98134 11.183 8.98318 13.2499C8.98206 13.509 8.95919 13.7675 8.91499 14.0221ZM10.5527 14.0508C10.5905 13.7856 10.6118 13.5181 10.6165 13.2499C10.6142 10.4601 8.88395 8.01811 6.39414 7.29002C6.99092 6.30908 7.92386 5.62505 8.98726 5.38865C9.0381 8.2968 10.9488 10.777 13.5843 11.3556C13.0647 12.7543 11.922 13.7702 10.5527 14.0508ZM10.625 5.39085C12.4843 5.81121 13.8306 7.5622 13.8738 9.61639C12.0164 9.1925 10.6716 7.4435 10.625 5.39085Z" fill="white"/>
</g>
<defs>
<clipPath id="clip0">
<rect width="49" height="53" fill="white"/>
</clipPath>
</defs>
</svg>
