<svg width="53" height="53" viewBox="0 0 53 53" fill="none" xmlns="http://www.w3.org/2000/svg">
<path d="M26.5 0.187744C15.6414 0.187744 7.1355 8.04939 7.1355 18.0849C7.1355 22.8521 9.02783 29.1639 12.0746 34.556C12.6218 35.5248 13.3361 36.5433 14.0925 37.6212C15.6176 39.7964 17.3123 42.2298 17.6312 44.3863C16.6045 44.7444 15.9223 45.7194 15.9375 46.8066C15.9417 47.4638 16.1947 48.095 16.6454 48.5733C15.6538 49.6354 15.7109 51.3003 16.773 52.2919C17.2626 52.7491 17.9082 53.0022 18.5781 52.9998H34.4218C35.8751 53.0049 37.0573 51.8308 37.0624 50.3775C37.0647 49.7055 36.8099 49.0582 36.3502 48.5681C36.8081 48.071 37.0624 47.4198 37.0624 46.7439C37.0624 45.6758 36.381 44.7268 35.3689 44.3854C35.6881 42.229 37.3826 39.796 38.9075 37.6211C39.664 36.5432 40.3782 35.5246 40.9254 34.5559C43.9721 29.1638 45.8645 22.852 45.8645 18.0848C45.8644 8.04939 37.3586 0.187744 26.5 0.187744ZM34.4218 51.2395H18.5781C18.092 51.2395 17.6979 50.8454 17.6979 50.3593C17.6979 49.8732 18.092 49.4791 18.5781 49.4791H34.4218C34.9079 49.4791 35.302 49.8732 35.302 50.3593C35.302 50.8454 34.908 51.2395 34.4218 51.2395ZM34.2921 47.7187H18.708C18.1692 47.7374 17.7173 47.3158 17.6986 46.777C17.6983 46.766 17.698 46.755 17.698 46.744C17.698 46.2042 18.2215 45.9583 18.7081 45.9583H34.2922C34.7787 45.9583 35.3022 46.2041 35.3022 46.8067C35.2731 47.3365 34.8221 47.7437 34.2921 47.7187ZM39.3927 33.6896C38.8873 34.5844 38.1971 35.5686 37.4664 36.6104C35.8143 38.9665 33.9641 41.6046 33.604 44.1979H19.3961C19.0358 41.6046 17.1857 38.9665 15.5335 36.6104C14.8028 35.5686 14.1126 34.5844 13.6072 33.6896C10.7452 28.6241 8.8959 22.4988 8.8959 18.0849C8.8959 9.03621 16.6286 1.94815 26.5 1.94815C36.3713 1.94815 44.104 9.03621 44.104 18.0849C44.104 22.4988 42.2547 28.6241 39.3927 33.6896Z" fill="white"/>
<path d="M26.4998 7.22949C24.5553 7.22949 22.979 8.80583 22.979 10.7503C22.979 12.6948 24.5553 14.2711 26.4998 14.2711C28.4443 14.2711 30.0206 12.6948 30.0206 10.7503C30.0186 8.8066 28.4435 7.23147 26.4998 7.22949ZM26.4998 12.5107C25.5275 12.5107 24.7394 11.7226 24.7394 10.7503C24.7394 9.77801 25.5275 8.9899 26.4998 8.9899C27.4721 8.9899 28.2602 9.77801 28.2602 10.7503C28.2591 11.722 27.4717 12.5095 26.4998 12.5107Z" fill="white"/>
<path d="M30.0194 34.4717L29.1392 16.8677C29.1159 16.3992 28.7293 16.0314 28.2603 16.0312H24.7395C24.2704 16.0312 23.8838 16.3992 23.8606 16.8677L22.9804 34.4717C22.9558 34.9568 23.3291 35.3701 23.8143 35.3946C23.8292 35.3954 23.8443 35.3957 23.8594 35.3957H29.1406C29.6264 35.396 30.0204 35.0025 30.0207 34.5167C30.0205 34.5018 30.0201 34.4868 30.0194 34.4717ZM24.7846 33.6354L25.5767 17.7918H27.423L28.2151 33.6354H24.7846Z" fill="white"/>
<path d="M52.0259 17.7917H48.5051V19.5522H52.0259V17.7917Z" fill="white"/>
<path d="M4.49493 17.7917H0.974121V19.5522H4.49493V17.7917Z" fill="white"/>
<path d="M44.8767 34.767L43.6321 36.012L46.122 38.5012L47.3666 37.2562L44.8767 34.767Z" fill="white"/>
<path d="M9.07242 9.02091e-05L7.82764 1.24487L10.3172 3.73444L11.562 2.48966L9.07242 9.02091e-05Z" fill="white"/>
<path d="M44.6595 0.449155L42.1699 2.93872L43.4147 4.1835L45.9043 1.69394L44.6595 0.449155Z" fill="white"/>
<path d="M8.27288 34.9263L5.78296 37.4155L7.02757 38.6605L9.51748 36.1713L8.27288 34.9263Z" fill="white"/>
</svg>
